<svg width="714" height="444" viewBox="0 0 714 444" fill="none" xmlns="http://www.w3.org/2000/svg">
<g style="mix-blend-mode:luminosity">
<path d="M351.745 201.634L351.745 204.553L713.733 204.553L713.733 201.634L351.745 201.634Z" fill="#363338"/>
<path d="M328.056 252.17L328.056 255.089L369.466 255.089L369.466 252.17L328.056 252.17Z" fill="#363338"/>
<path d="M231.86 179.871L231.86 182.789L449.244 182.789L449.244 179.871L231.86 179.871Z" fill="#363338"/>
<path d="M244.321 192.281L244.321 195.199L427.316 195.199L427.316 192.281L244.321 192.281Z" fill="#363338"/>
<path d="M346.28 117.407L346.28 120.325L380.556 120.325L380.556 117.407L346.28 117.407Z" fill="#363338"/>
<path d="M326.707 154.867L326.707 157.762L399.649 157.762L399.649 154.867L326.707 154.867Z" fill="#363338"/>
<path d="M391.691 129.84L391.691 132.735L713.755 132.735L713.755 129.84L391.691 129.84Z" fill="#363338"/>
<path d="M402.232 123.611L402.232 126.53L713.755 126.53L713.755 123.611L402.232 123.611Z" fill="#363338"/>
<path d="M391.691 135.562L391.691 138.481L557.994 138.481L557.994 135.562L391.691 135.562Z" fill="#363338"/>
<path d="M460.38 192.281L460.38 195.199L506.592 195.199L506.592 192.281L460.38 192.281Z" fill="#363338"/>
<path d="M317.835 235.761L317.835 302.707L320.739 302.707L320.739 235.761L317.835 235.761Z" fill="#363338"/>
<path d="M317.793 235.736L319.847 237.8L353.768 203.706L351.715 201.643L317.793 235.736Z" fill="#363338"/>
<path d="M422.724 259.936L424.778 262L463.943 222.614L461.889 220.551L422.724 259.936Z" fill="#363338"/>
<path d="M447.186 154.264L449.241 156.326L485.857 119.482L483.803 117.42L447.186 154.264Z" fill="#363338"/>
<path d="M400.036 333.029L402.089 335.094L446.613 290.363L444.56 288.299L400.036 333.029Z" fill="#363338"/>
<path d="M309.377 226.38L311.431 228.444L345.352 194.35L343.299 192.287L309.377 226.38Z" fill="#363338"/>
<path d="M342.957 252.983L345.01 255.047L364.207 235.764L362.154 233.699L342.957 252.983Z" fill="#363338"/>
<path d="M377.745 281.361L379.798 283.425L398.995 264.141L396.943 262.077L377.745 281.361Z" fill="#363338"/>
<path d="M430.471 277.885L432.524 279.95L451.721 260.666L449.668 258.602L430.471 277.885Z" fill="#363338"/>
<path d="M133.728 242.651L135.782 244.715L169.703 210.622L167.65 208.558L133.728 242.651Z" fill="#363338"/>
<path d="M152.378 252.607L134.475 270.671L132.417 268.625L150.343 250.539L152.378 252.607Z" fill="#363338"/>
<path d="M367.461 253.05L369.497 255.099L389.7 234.811L387.664 232.762L367.461 253.05Z" fill="#363338"/>
<path d="M30.1153 230.154L30.1153 233.073L71.5251 233.073L71.5251 230.154L30.1153 230.154Z" fill="#363338"/>
<path d="M69.4879 231.005L71.5404 233.07L91.7433 212.782L89.6908 210.717L69.4879 231.005Z" fill="#363338"/>
<path d="M40.4734 238.45L40.4734 241.346L81.8832 241.346L81.8832 238.45L40.4734 238.45Z" fill="#363338"/>
<path d="M46.2356 262.765L46.2356 265.661L83.3009 265.661L83.3009 262.765L46.2356 262.765Z" fill="#363338"/>
<path d="M79.8086 239.287L81.8614 241.352L110.277 212.808L108.224 210.744L79.8086 239.287Z" fill="#363338"/>
<path d="M218.67 216.467L220.725 218.529L233.518 205.646L231.462 203.584L218.67 216.467Z" fill="#363338"/>
<path d="M209.358 250.132L211.397 252.178L224.19 239.295L222.151 237.249L209.358 250.132Z" fill="#363338"/>
<path d="M267.369 217.07L269.424 219.132L282.219 206.249L280.163 204.187L267.369 217.07Z" fill="#363338"/>
<path d="M333.109 299.168L335.165 301.229L347.957 288.346L345.902 286.285L333.109 299.168Z" fill="#363338"/>
<path d="M384.494 291.713L386.55 293.775L399.342 280.892L397.287 278.83L384.494 291.713Z" fill="#363338"/>
<path d="M232.048 229.952L234.103 232.014L246.896 219.131L244.841 217.069L232.048 229.952Z" fill="#363338"/>
<path d="M202.775 156.59L177.416 182.283L175.381 180.238L200.717 154.522L202.775 156.59Z" fill="#363338"/>
<path d="M414.123 155.878L401.707 168.403L399.649 166.357L412.088 153.81L414.123 155.878Z" fill="#363338"/>
<path d="M438.475 204.139L426.058 216.687L424 214.619L436.439 202.094L438.475 204.139Z" fill="#363338"/>
<path d="M605.372 226.109L592.933 238.657L590.898 236.589L603.314 224.064L605.372 226.109Z" fill="#363338"/>
<path d="M243.322 110.788L245.375 112.853L260.333 97.821L258.279 95.757L243.322 110.788Z" fill="#363338"/>
<path d="M243.319 98.8834L245.372 100.948L260.33 85.916L258.277 83.8519L243.319 98.8834Z" fill="#363338"/>
<path d="M210.25 105.342L212.303 107.406L227.261 92.3743L225.208 90.3102L210.25 105.342Z" fill="#363338"/>
<path d="M222.233 167.552L201.014 188.787L198.979 186.742L220.198 165.507L222.233 167.552Z" fill="#363338"/>
<path d="M135.723 175.575L137.776 177.639L152.732 162.608L150.678 160.544L135.723 175.575Z" fill="#363338"/>
<path d="M164.876 272.473L166.913 274.521L187.094 254.243L185.057 252.195L164.876 272.473Z" fill="#363338"/>
<path d="M108.521 148.757L110.574 150.821L125.53 135.79L123.477 133.726L108.521 148.757Z" fill="#363338"/>
<path d="M210.8 74.0402L187.683 97.1367L185.648 95.0914L208.765 71.9719L210.8 74.0402Z" fill="#363338"/>
<path d="M255.915 16.5864L232.797 39.6829L230.739 37.6375L253.857 14.518L255.915 16.5864Z" fill="#363338"/>
<path d="M167.164 153.358L169.199 155.408L189.735 134.804L187.699 132.754L167.164 153.358Z" fill="#363338"/>
<path d="M119.978 159.006L122.029 161.071L142.564 140.467L140.513 138.401L119.978 159.006Z" fill="#363338"/>
<path d="M460.37 96.3041L462.423 98.3682L480.405 80.2978L478.352 78.2338L460.37 96.3041Z" fill="#363338"/>
<path d="M504.546 193.139L506.6 195.203L524.579 177.133L522.525 175.069L504.546 193.139Z" fill="#363338"/>
<path d="M447.173 181.937L460.359 195.205L462.413 193.142L449.227 179.875L447.173 181.937Z" fill="#363338"/>
<path d="M463.901 184.627L463.901 187.546L499.595 187.546L499.595 184.627L463.901 184.627Z" fill="#363338"/>
<path d="M426.104 172.195L426.104 175.114L452.766 175.114L452.766 172.195L426.104 172.195Z" fill="#363338"/>
<path d="M450.709 174.223L463.896 187.49L465.951 185.428L452.763 172.16L450.709 174.223Z" fill="#363338"/>
<path d="M378.496 119.477L391.68 132.746L393.735 130.684L380.551 117.414L378.496 119.477Z" fill="#363338"/>
<path d="M356.821 111.179L356.821 114.097L391.097 114.097L391.097 111.179L356.821 111.179Z" fill="#363338"/>
<path d="M389.039 113.259L402.225 126.526L404.28 124.464L391.094 111.196L389.039 113.259Z" fill="#363338"/>
<path d="M410.716 117.43L410.716 120.325L648.839 120.325L648.839 117.43L410.716 117.43Z" fill="#363338"/>
<path d="M397.53 107.05L410.716 120.318L412.77 118.256L399.584 104.988L397.53 107.05Z" fill="#363338"/>
<path d="M484.395 173.463L497.579 186.732L499.633 184.67L486.449 171.401L484.395 173.463Z" fill="#363338"/>
<path d="M585.178 177.183L598.362 190.453L600.417 188.39L587.233 175.121L585.178 177.183Z" fill="#363338"/>
<path d="M555.959 137.65L569.143 150.92L571.198 148.857L558.014 135.588L555.959 137.65Z" fill="#363338"/>
<path d="M607.73 90.2811L620.915 103.549L622.97 101.486L609.784 88.2185L607.73 90.2811Z" fill="#363338"/>
<path d="M344.222 147.995L344.222 150.914L380.579 150.914L380.579 147.995L344.222 147.995Z" fill="#363338"/>
<path d="M378.554 148.863L380.609 150.926L393.793 137.656L391.738 135.594L378.554 148.863Z" fill="#363338"/>
<path d="M386.418 74.0483L399.602 87.3179L401.64 85.2718L388.456 72.0022L386.418 74.0483Z" fill="#363338"/>
<path d="M396.498 51.1775L409.68 64.449L411.719 62.4032L398.537 49.1317L396.498 51.1775Z" fill="#363338"/>
<path d="M187.683 132.735L187.683 135.654L306.082 135.654L306.082 132.735L187.683 132.735Z" fill="#363338"/>
<path d="M328.765 155.717L306.105 132.735L304.047 134.781L326.707 157.762L328.765 155.717Z" fill="#363338"/>
<path d="M353.46 316.703L330.8 293.721L328.765 295.767L351.402 318.748L353.46 316.703Z" fill="#363338"/>
<path d="M346.646 380.086L323.986 357.104L321.951 359.173L344.588 382.154L346.646 380.086Z" fill="#363338"/>
<path d="M325.952 341.684L303.292 318.702L301.257 320.747L323.917 343.729L325.952 341.684Z" fill="#363338"/>
<path d="M302.172 403.619L279.512 380.638L277.477 382.706L300.137 405.665L302.172 403.619Z" fill="#363338"/>
<path d="M283.811 434.047L261.151 411.065L259.116 413.134L281.776 436.092L283.811 434.047Z" fill="#363338"/>
<path d="M446.546 290.504L423.886 267.523L421.828 269.591L444.488 292.55L446.546 290.504Z" fill="#363338"/>
<path d="M205.678 141.376L205.678 144.295L295.312 144.295L295.312 141.376L205.678 141.376Z" fill="#363338"/>
<path d="M311.821 158.268L295.312 141.399L293.254 143.445L309.786 160.336L311.821 158.268Z" fill="#363338"/>
<path d="M255.915 16.4715L246.585 7.00309L244.527 9.04844L253.857 18.5168L255.915 16.4715Z" fill="#363338"/>
<path d="M352.842 235.003L336.31 218.112L334.275 220.157L350.807 237.049L352.842 235.003Z" fill="#363338"/>
<path d="M346.28 148.845L323.62 125.887L321.585 127.932L344.245 150.914L346.28 148.845Z" fill="#363338"/>
<path d="M388.582 291.722L365.922 268.74L363.887 270.808L386.547 293.767L388.582 291.722Z" fill="#363338"/>
<path d="M386.318 238.037L363.658 215.055L361.623 217.123L384.283 240.082L386.318 238.037Z" fill="#363338"/>
<path d="M392.126 270.717L371.524 249.896L369.489 251.964L390.091 272.762L392.126 270.717Z" fill="#363338"/>
<path d="M418.97 315.6L390.411 286.827L388.376 288.872L416.912 317.668L418.97 315.6Z" fill="#363338"/>
<path d="M306.379 96.3096L283.719 73.328L281.684 75.3964L304.321 98.355L306.379 96.3096Z" fill="#363338"/>
<path d="M104.475 179.388L104.475 182.283L177.416 182.283L177.416 179.388L104.475 179.388Z" fill="#363338"/>
<path d="M16.35 136.964L16.35 139.86L89.4061 139.86L89.4061 136.964L16.35 136.964Z" fill="#363338"/>
<path d="M70.0846 210.574L70.0846 213.493L143.026 213.493L143.026 210.574L70.0846 210.574Z" fill="#363338"/>
<path d="M184.55 229.281L184.55 232.2L199.23 232.2L199.23 229.281L184.55 229.281Z" fill="#363338"/>
<path d="M106.533 180.238L94.1851 167.736L92.1272 169.781L104.475 182.283L106.533 180.238Z" fill="#363338"/>
<path d="M171.586 83.6925L146.228 109.409L144.192 107.341L169.528 81.6242L171.586 83.6925Z" fill="#363338"/>
<path d="M101.822 138.871L76.487 164.588L74.4291 162.519L99.7872 136.803L101.822 138.871Z" fill="#363338"/>
<path d="M73.2858 106.49L73.2858 109.409L146.228 109.409L146.228 106.49L73.2858 106.49Z" fill="#363338"/>
<path d="M160.542 73.9485L160.542 76.8672L206.753 76.8672L206.753 73.9485L160.542 73.9485Z" fill="#363338"/>
<path d="M215.831 80.1765L215.831 83.0952L250.427 83.0952L250.427 80.1765L215.831 80.1765Z" fill="#363338"/>
<path d="M75.3436 107.341L52.6837 84.382L50.6258 86.4274L73.2857 109.409L75.3436 107.341Z" fill="#363338"/>
<path d="M38.9413 159.831L16.2813 136.849L14.2463 138.917L36.9062 161.876L38.9413 159.831Z" fill="#363338"/>
<path d="M326.615 84.4048L326.615 87.3005L399.557 87.3005L399.557 84.4048L326.615 84.4048Z" fill="#363338"/>
<path d="M328.65 85.2552L305.99 62.2736L303.955 64.3419L326.615 87.3005L328.65 85.2552Z" fill="#363338"/>
<path d="M363.452 32.1907L363.452 35.0864L449.93 35.0864L449.93 32.1907L363.452 32.1907Z" fill="#363338"/>
<path d="M365.487 34.2132L342.827 57.1948L340.792 55.1495L363.429 32.1679L365.487 34.2132Z" fill="#363338"/>
<path d="M284.766 334.738L286.82 336.802L320.741 302.709L318.687 300.645L284.766 334.738Z" fill="#363338"/>
<path d="M272.177 386.189L274.23 388.253L308.151 354.16L306.098 352.096L272.177 386.189Z" fill="#363338"/>
<path d="M259.1 413.108L261.154 415.172L295.075 381.079L293.021 379.015L259.1 413.108Z" fill="#363338"/>
<path d="M244.321 192.281L244.321 259.226L247.225 259.226L247.225 192.281L244.321 192.281Z" fill="#363338"/>
<path d="M209.291 217.078L209.291 266.212L212.172 266.212L212.172 217.078L209.291 217.078Z" fill="#363338"/>
<path d="M279.42 95.5279L279.42 98.4236L462.415 98.4236L462.415 95.5279L279.42 95.5279Z" fill="#363338"/>
<path d="M284.062 110.994L284.062 113.913L295.587 113.913L295.587 110.994L284.062 110.994Z" fill="#363338"/>
<path d="M444.555 204.351L479.7 239.689L481.754 237.626L446.609 202.288L444.555 204.351Z" fill="#363338"/>
<path d="M510.273 187.523L510.273 190.442L612.003 190.442L612.003 187.523L510.273 187.523Z" fill="#363338"/>
<path d="M620.943 100.653L620.943 103.549L713.755 103.549L713.755 100.653L620.943 100.653Z" fill="#363338"/>
<path d="M659.244 105.709L659.244 108.628L713.756 108.628L713.756 105.709L659.244 105.709Z" fill="#363338"/>
<path d="M622.384 175.849L622.384 178.768L713.756 178.768L713.756 175.849L622.384 175.849Z" fill="#363338"/>
<path d="M467.446 224.041L467.446 226.96L667.361 226.96L667.361 224.041L467.446 224.041Z" fill="#363338"/>
<path d="M569.13 147.995L569.13 150.914L713.755 150.914L713.755 147.995L569.13 147.995Z" fill="#363338"/>
<path d="M300.132 123.018L302.185 125.082L322.218 104.947L320.164 102.884L300.132 123.018Z" fill="#363338"/>
<path d="M359.542 78.684L361.596 80.7478L381.628 60.6137L379.575 58.5499L359.542 78.684Z" fill="#363338"/>
<path d="M435.423 81.3744L437.477 83.4382L457.509 63.3041L455.456 61.2403L435.423 81.3744Z" fill="#363338"/>
<path d="M250.437 66.7272L252.491 68.791L272.523 48.6569L270.47 46.5931L250.437 66.7272Z" fill="#363338"/>
<path d="M439.504 34.6499L409.687 64.457L407.629 62.3887L437.446 32.6046L439.504 34.6499Z" fill="#363338"/>
<path d="M314.211 73.3479L316.265 75.4116L336.297 55.2775L334.244 53.2138L314.211 73.3479Z" fill="#363338"/>
<path d="M320.213 102.905L320.213 105.801L376.554 105.801L376.554 102.905L320.213 102.905Z" fill="#363338"/>
<path d="M333.429 25.3881L333.429 55.2871L336.333 55.2871L336.333 25.3881L333.429 25.3881Z" fill="#363338"/>
<path d="M451.782 96.3782L413.345 57.5164L411.31 59.5617L449.725 98.4236L451.782 96.3782Z" fill="#363338"/>
<path d="M308.574 204.484L270.137 165.622L268.079 167.69L306.516 206.529L308.574 204.484Z" fill="#363338"/>
<path d="M212.081 175.711L173.666 136.872L171.609 138.917L210.046 177.779L212.081 175.711Z" fill="#363338"/>
<path d="M620.646 225.052L584.404 188.397L582.46 190.327L618.725 226.983L620.646 225.052Z" fill="#363338"/>
<path d="M568.146 187.73L505.494 124.094L503.573 126.048L566.203 189.684L568.146 187.73Z" fill="#363338"/>
<path d="M487.179 69.0074L453.772 34.7878L451.737 36.8332L485.144 71.0527L487.179 69.0074Z" fill="#363338"/>
<path d="M493.467 42.7625L460.06 8.5429L458.002 10.6112L491.432 44.8308L493.467 42.7625Z" fill="#363338"/>
<path d="M281.478 96.3782L235.175 49.9554L233.117 52.0238L279.42 98.4236L281.478 96.3782Z" fill="#363338"/>
<path d="M191.067 14.7249L179.955 3.71671L177.897 5.78507L189.032 16.7703L191.067 14.7249Z" fill="#363338"/>
<path d="M232.294 29.9846L221.159 18.9995L219.124 21.0448L230.236 32.053L232.294 29.9846Z" fill="#363338"/>
<path d="M271.921 41.2454L260.808 30.2602L258.75 32.3055L269.886 43.3137L271.921 41.2454Z" fill="#363338"/>
<path d="M256.29 85.9046L284.116 113.875L286.17 111.811L258.344 83.8408L256.29 85.9046Z" fill="#363338"/>
<path d="M328.056 252.171L328.056 319.116L330.96 319.116L330.96 252.171L328.056 252.171Z" fill="#363338"/>
<path d="M192.851 13.8513L192.851 49.5876L195.755 49.5876L195.755 13.8513L192.851 13.8513Z" fill="#363338"/>
<path d="M197.012 215.63L197.012 218.525L220.747 218.525L220.747 215.63L197.012 215.63Z" fill="#363338"/>
<path d="M197.012 215.63L197.012 253.044L199.916 253.044L199.916 215.63L197.012 215.63Z" fill="#363338"/>
<path d="M328.058 319.131L361.979 353.224L364.032 351.16L330.111 317.067L328.058 319.131Z" fill="#363338"/>
<path d="M368.17 301.057L402.091 335.15L404.128 333.102L370.207 299.009L368.17 301.057Z" fill="#363338"/>
<path d="M259.641 216.365L259.641 219.284L301.051 219.284L301.051 216.365L259.641 216.365Z" fill="#363338"/>
<path d="M244.326 236.89L264.529 257.178L266.582 255.114L246.379 234.826L244.326 236.89Z" fill="#363338"/>
<path d="M278.712 235.254L298.915 255.542L300.968 253.478L280.765 233.19L278.712 235.254Z" fill="#363338"/>
<path d="M285.906 335.883L306.109 356.171L308.146 354.122L287.943 333.834L285.906 335.883Z" fill="#363338"/>
<path d="M114.248 250.355L134.451 270.646L136.503 268.581L116.301 248.29L114.248 250.355Z" fill="#363338"/>
<path d="M146.486 231.093L166.689 251.381L168.741 249.316L148.538 229.028L146.486 231.093Z" fill="#363338"/>
<path d="M198.946 186.744L219.149 207.032L221.202 204.967L200.999 184.679L198.946 186.744Z" fill="#363338"/>
<path d="M276.051 48.6391L296.251 68.9299L298.304 66.8656L278.104 46.5747L276.051 48.6391Z" fill="#363338"/>
<path d="M146.726 254.243L166.929 274.531L168.982 272.467L148.779 252.179L146.726 254.243Z" fill="#363338"/>
<path d="M99.968 219.931L120.171 240.219L122.223 238.154L102.021 217.866L99.968 219.931Z" fill="#363338"/>
<path d="M342.678 35.9888L344.715 38.0369L364.915 17.746L362.878 15.6979L342.678 35.9888Z" fill="#363338"/>
<path d="M366.287 84.7268L355.175 73.7416L353.117 75.787L364.252 86.7952L366.287 84.7268Z" fill="#363338"/>
<path d="M375.548 148.202L364.412 137.194L362.377 139.262L373.49 150.247L375.548 148.202Z" fill="#363338"/>
<path d="M47.1904 153.857L57.2823 163.994L59.3351 161.93L49.2432 151.792L47.1904 153.857Z" fill="#363338"/>
<path d="M43.5208 222.944L53.6142 233.08L55.6667 231.015L45.5734 220.879L43.5208 222.944Z" fill="#363338"/>
<path d="M97.7588 138.848L140.52 181.808L142.573 179.743L99.8119 136.784L97.7588 138.848Z" fill="#363338"/>
<path d="M130.023 86.8297L132.074 88.8955L152.612 68.2914L150.56 66.2256L130.023 86.8297Z" fill="#363338"/>
<path d="M162.551 34.8663L164.603 36.9321L185.141 16.328L183.089 14.2622L162.551 34.8663Z" fill="#363338"/>
<path d="M51.7126 114.247L53.1341 115.678L67.4249 101.343L66.0034 99.912L51.7126 114.247Z" fill="#363338"/>
<path d="M45.4016 107.974L46.823 109.406L61.1138 95.0707L59.6924 93.6393L45.4016 107.974Z" fill="#363338"/>
<path d="M47.1122 172.616L49.1644 174.681L83.849 139.861L81.7968 137.796L47.1122 172.616Z" fill="#363338"/>
<path d="M16.359 178.365L18.3944 180.414L38.9324 159.81L36.8969 157.761L16.359 178.365Z" fill="#363338"/>
<path d="M19.9457 259.038L21.9973 261.103L42.5324 240.499L40.4808 238.433L19.9457 259.038Z" fill="#363338"/>
<path d="M85.7475 86.0139L85.7475 88.9326L132.028 88.9326L132.028 86.0139L85.7475 86.0139Z" fill="#363338"/>
<path d="M96.1057 75.396L96.1057 78.3147L142.386 78.3147L142.386 75.396L96.1057 75.396Z" fill="#363338"/>
<path d="M140.031 13.8516L140.031 16.7703L194.314 16.7703L194.314 13.8516L140.031 13.8516Z" fill="#363338"/>
<path d="M192.896 46.669L192.896 49.5876L211.601 49.5876L211.601 46.669L192.896 46.669Z" fill="#363338"/>
<path d="M175.13 41.9351L175.13 44.8538L193.834 44.8538L193.834 41.9351L175.13 41.9351Z" fill="#363338"/>
<path d="M137.355 36.994L137.355 39.9126L156.06 39.9126L156.06 36.994L137.355 36.994Z" fill="#363338"/>
<path d="M206.724 74.0399L245.35 112.895L247.388 110.848L208.762 71.9932L206.724 74.0399Z" fill="#363338"/>
<path d="M150.358 66.4696L169.52 85.7588L171.575 83.6965L152.413 64.4073L150.358 66.4696Z" fill="#363338"/>
<path d="M298.147 216.365L298.147 283.311L301.029 283.311L301.029 216.365L298.147 216.365Z" fill="#363338"/>
<path d="M220.175 165.484L220.175 168.403L401.707 168.403L401.707 165.484L220.175 165.484Z" fill="#363338"/>
<path d="M278.597 8.54275L278.597 11.4614L460.129 11.4614L460.129 8.54275L278.597 8.54275Z" fill="#363338"/>
<path d="M200.717 154.522L200.717 157.44L288.338 157.44L288.338 154.522L200.717 154.522Z" fill="#363338"/>
<path d="M412.088 153.833L412.088 156.728L508.032 156.728L508.032 153.833L412.088 153.833Z" fill="#363338"/>
<path d="M419.084 163.048L406.646 175.596L404.61 173.528L417.027 161.003L419.084 163.048Z" fill="#363338"/>
<path d="M417.027 160.98L417.027 163.898L713.755 163.898L713.755 160.98L417.027 160.98Z" fill="#363338"/>
<path d="M488.459 69.2371L488.459 72.1558L661.439 72.1558L661.439 69.2371L488.459 69.2371Z" fill="#363338"/>
<path d="M490.517 90.2653L478.078 102.813L476.043 100.768L488.459 88.2199L490.517 90.2653Z" fill="#363338"/>
<path d="M661.279 107.777L648.863 120.325L646.828 118.257L659.244 105.732L661.279 107.777Z" fill="#363338"/>
<path d="M624.419 177.917L612.003 190.442L609.968 188.397L622.384 175.849L624.419 177.917Z" fill="#363338"/>
<path d="M488.459 88.2201L488.459 91.1157L609.808 91.1157L609.808 88.2201L488.459 88.2201Z" fill="#363338"/>
<path d="M478.078 99.8946L478.078 102.813L520.288 102.813L520.288 99.8946L478.078 99.8946Z" fill="#363338"/>
<path d="M399.557 104.997L399.557 107.892L445.837 107.892L445.837 104.997L399.557 104.997Z" fill="#363338"/>
<path d="M184.185 201.083L184.185 254.239L187.089 254.239L187.089 201.083L184.185 201.083Z" fill="#363338"/>
<path d="M343.925 333.824L343.925 400.77L346.829 400.77L346.829 333.824L343.925 333.824Z" fill="#363338"/>
<path d="M216.768 29.9158L216.768 68.7776L240.755 68.7776L240.755 29.9158L216.768 29.9158Z" fill="#363338"/>
<path d="M293.803 25.595L293.803 49.335L317.789 49.335L317.789 25.595L293.803 25.595Z" fill="#363338"/>
<path d="M403.124 249.413L422.72 249.413L422.72 230.016L403.124 230.016L403.124 249.413ZM417.598 235.095L417.598 244.357L408.246 244.357L408.246 235.095L417.598 235.095Z" fill="#363338"/>
<path d="M366.973 326.884L366.973 340.765L380.99 340.765L380.99 326.884L366.973 326.884Z" fill="#363338"/>
<path d="M151.875 130.253L151.875 141.055L175.862 141.055L175.862 130.253L151.875 130.253Z" fill="#363338"/>
<path d="M207.942 29.893L207.942 40.6714L213.636 40.6714L213.636 29.893L207.942 29.893Z" fill="#363338"/>
<path d="M207.942 42.8313L207.942 53.6096L213.636 53.6096L213.636 42.8312L207.942 42.8313Z" fill="#363338"/>
<path d="M419.382 255.986C424.458 255.986 428.574 260.122 428.574 265.224C428.574 270.326 424.458 274.463 419.382 274.463C414.306 274.463 410.19 270.326 410.19 265.224C410.213 260.122 414.306 255.986 419.382 255.986Z" fill="#363338"/>
<path d="M484.366 68.1341L484.366 73.6038L489.808 73.6038L489.808 68.1341L484.366 68.1341Z" fill="#363338"/>
<path d="M340.998 397.391L340.998 406.193L349.756 406.193L349.756 397.391L340.998 397.391Z" fill="#363338"/>
<path d="M292.454 373.352L292.454 382.154L301.212 382.154L301.212 373.352L292.454 373.352Z" fill="#363338"/>
<path d="M319.367 377.742L319.367 383.556L325.152 383.556L325.152 377.742L319.367 377.742Z" fill="#363338"/>
<path d="M178.834 155.28L178.834 168.748L181.761 168.748L181.761 155.28L178.834 155.28Z" fill="#363338"/>
<path d="M173.598 160.543L173.598 163.485L186.997 163.485L186.997 160.543L173.598 160.543Z" fill="#363338"/>
<path d="M123.43 4.22225L123.43 17.6895L126.357 17.6895L126.357 4.22225L123.43 4.22225Z" fill="#363338"/>
<path d="M118.194 9.48512L118.194 12.4268L131.593 12.4268L131.593 9.48512L118.194 9.48512Z" fill="#363338"/>
<path d="M380.19 208.896L380.19 222.364L383.14 222.364L383.14 208.896L380.19 208.896Z" fill="#363338"/>
<path d="M374.954 214.159L374.954 217.101L388.353 217.101L388.353 214.159L374.954 214.159Z" fill="#363338"/>
<path d="M409.732 75.2121L409.732 84.083L411.676 84.083L411.676 75.2121L409.732 75.2121Z" fill="#363338"/>
<path d="M406.302 78.6593L406.302 80.6128L415.129 80.6128L415.129 78.6593L406.302 78.6593Z" fill="#363338"/>
<path d="M504.42 85.4163L499.183 79.9466L504.42 74.454L504.42 85.4163Z" fill="#363338"/>
<path d="M503.825 78.1081L503.825 81.7622L518.162 81.7622L518.162 78.1081L503.825 78.1081Z" fill="#363338"/>
<path d="M305.968 189.913L308.323 187.431L305.968 184.972L305.968 189.913Z" fill="#363338"/>
<path d="M299.771 186.604L299.771 188.259L306.242 188.259L306.242 186.604L299.771 186.604Z" fill="#363338"/>
<path d="M171.631 101.388L173.986 98.9064L171.631 96.4244L171.631 101.388Z" fill="#363338"/>
<path d="M165.435 98.0792L165.435 99.7339L171.906 99.7339L171.906 98.0792L165.435 98.0792Z" fill="#363338"/>
<path d="M185.374 36.4885L187.729 34.0295L185.374 31.5475L185.374 36.4885Z" fill="#363338"/>
<path d="M179.177 33.2023L179.177 34.8569L185.648 34.8569L185.648 33.2023L179.177 33.2023Z" fill="#363338"/>
<path d="M230.579 266.649L234.855 262.168L230.579 257.663L230.579 266.649Z" fill="#363338"/>
<path d="M219.329 260.674L219.329 263.661L231.059 263.661L231.059 260.674L219.329 260.674Z" fill="#363338"/>
<path d="M567.735 109.823L562.521 104.353L567.735 98.8606L567.735 109.823Z" fill="#363338"/>
<path d="M567.14 102.515L567.14 106.169L581.477 106.169L581.477 102.515L567.14 102.515Z" fill="#363338"/>
<path d="M422.426 59.5012L433.582 70.7139L444.738 59.5012L433.582 48.2885L422.426 59.5012Z" fill="#363338"/>
<path d="M321.61 74.208L327.398 80.0256L333.186 74.208L327.398 68.3904L321.61 74.208Z" fill="#363338"/>
<path d="M393.576 317.061L401.951 325.479L410.326 317.061L401.951 308.643L393.576 317.061Z" fill="#363338"/>
<path d="M281.008 353.903L290.612 363.556L300.216 353.903L290.612 344.25L281.008 353.903Z" fill="#363338"/>
<path d="M279.65 412.904L283.918 417.194L288.187 412.904L283.918 408.614L279.65 412.904Z" fill="#363338"/>
<path d="M270.206 412.881L283.902 426.647L297.599 412.881L283.902 399.115L270.206 412.881ZM291.905 412.881L283.902 420.925L275.899 412.881L283.902 404.837L291.905 412.881Z" fill="#363338"/>
<path d="M200.192 9.05771L208.568 17.4753L216.943 9.05771L208.568 0.640078L200.192 9.05771Z" fill="#363338"/>
<path d="M114.28 27.1908L121.424 34.3755L128.573 27.1949L121.428 20.0102L114.28 27.1908Z" fill="#363338"/>
<path d="M57.6361 79.206L69.4858 91.1191L81.3389 79.2094L69.4892 67.2962L57.6361 79.206Z" fill="#363338"/>
<path d="M0.755554 159.325L11.9826 170.609L23.2097 159.325L11.9826 148.041L0.755554 159.325ZM11.9826 166.633L4.71133 159.325L11.9826 152.017L19.2539 159.325L11.9826 166.633Z" fill="#363338"/>
<path d="M144.278 83.8965L152.635 92.3003L160.997 83.9013L152.64 75.4975L144.278 83.8965Z" fill="#363338"/>
<path d="M101.912 248.344L110.288 256.76L118.662 248.341L110.286 239.925L101.912 248.344Z" fill="#363338"/>
<path d="M221.204 147.283L221.204 151.718L256.303 151.718L256.303 147.283L221.204 147.283Z" fill="#363338"/>
<path d="M219.329 256.261L241.075 256.261L241.075 234.337L219.329 256.261Z" fill="#363338"/>
<path d="M333.795 257.801L333.795 286.298L341.112 286.298L341.112 257.801L333.795 257.801Z" fill="#363338"/>
<path d="M20.9688 255.319C23.4155 255.319 25.3819 257.319 25.3819 259.755C25.3819 262.191 23.3926 264.19 20.9688 264.19C18.5222 264.19 16.5557 262.191 16.5557 259.755C16.5557 257.319 18.545 255.319 20.9688 255.319Z" fill="#363338"/>
<path d="M164.954 242.105C168.156 242.105 170.739 244.702 170.739 247.919C170.739 251.114 168.156 253.733 164.954 253.733C161.753 253.733 159.169 251.136 159.169 247.919C159.192 244.702 161.776 242.105 164.954 242.105Z" fill="#363338"/>
<path d="M148.56 249.252C151.006 249.252 152.973 251.251 152.973 253.687C152.973 256.146 150.984 258.123 148.56 258.123C146.113 258.123 144.147 256.123 144.147 253.687C144.147 251.228 146.113 249.252 148.56 249.252Z" fill="#363338"/>
<path d="M87.714 264.19C87.714 261.74 85.7382 259.755 83.3009 259.755C80.8636 259.755 78.8878 261.74 78.8878 264.19C78.8878 266.64 80.8636 268.625 83.3009 268.625C85.7382 268.625 87.714 266.64 87.714 264.19Z" fill="#363338"/>
<path d="M218.712 200.209C221.159 200.209 223.125 202.209 223.125 204.645C223.125 207.104 221.159 209.08 218.712 209.08C216.265 209.08 214.299 207.081 214.299 204.645C214.276 202.186 216.265 200.209 218.712 200.209Z" fill="#363338"/>
<path d="M295.769 62.1127C298.216 62.1127 300.182 64.1122 300.182 66.5482C300.182 69.0072 298.193 70.9836 295.769 70.9836C293.323 70.9836 291.356 68.9843 291.356 66.5482C291.333 64.0892 293.323 62.1127 295.769 62.1127Z" fill="#363338"/>
<path d="M311.981 85.7839C313.033 85.7839 313.902 86.6572 313.902 87.7143C313.902 88.7715 313.033 89.6448 311.981 89.6448C310.929 89.6448 310.061 88.7715 310.061 87.7143C310.061 86.6572 310.929 85.7839 311.981 85.7839Z" fill="#363338"/>
<path d="M304.55 76.4074C305.602 76.4074 306.471 77.2807 306.471 78.3379C306.471 79.395 305.602 80.2683 304.55 80.2683C303.498 80.2683 302.629 79.395 302.629 78.3379C302.629 77.2807 303.498 76.4074 304.55 76.4074Z" fill="#363338"/>
<path d="M93.339 163.967C95.7856 163.967 97.7521 165.944 97.7521 168.403C97.7521 170.862 95.7627 172.838 93.339 172.838C90.8923 172.838 88.9259 170.839 88.9259 168.403C88.9259 165.967 90.9152 163.967 93.339 163.967Z" fill="#363338"/>
<path d="M141.334 135.195C143.781 135.195 145.747 137.194 145.747 139.63C145.747 142.089 143.758 144.065 141.334 144.065C138.888 144.065 136.921 142.066 136.921 139.63C136.921 137.171 138.888 135.195 141.334 135.195Z" fill="#363338"/>
<path d="M185.648 92.8623C188.095 92.8623 190.061 94.8616 190.061 97.2977C190.061 99.7567 188.095 101.733 185.648 101.733C183.201 101.733 181.235 99.7337 181.235 97.2977C181.235 94.8616 183.201 92.8623 185.648 92.8623Z" fill="#363338"/>
<path d="M126.494 47.2207C128.255 47.2207 129.696 48.6685 129.696 50.4381C129.696 52.2077 128.255 53.6555 126.494 53.6555C124.734 53.6555 123.293 52.2077 123.293 50.4381C123.293 48.6455 124.734 47.2207 126.494 47.2207Z" fill="#363338"/>
<path d="M118.194 40.5564C119.955 40.5564 121.395 42.0042 121.395 43.7738C121.395 45.5434 119.955 46.9912 118.194 46.9912C116.433 46.9912 114.993 45.5434 114.993 43.7738C114.993 41.9812 116.433 40.5564 118.194 40.5564Z" fill="#363338"/>
<path d="M109.894 33.8687C111.654 33.8687 113.095 35.3165 113.095 37.0861C113.095 38.8556 111.654 40.3035 109.894 40.3035C108.133 40.3035 106.693 38.8556 106.693 37.0861C106.693 35.3165 108.133 33.8687 109.894 33.8687Z" fill="#363338"/>
<path d="M168.979 169.276C170.557 169.276 171.837 170.563 171.837 172.126C171.837 173.712 170.557 174.999 168.979 174.999C167.401 174.999 166.121 173.712 166.121 172.126C166.121 170.563 167.401 169.276 168.979 169.276Z" fill="#363338"/>
<path d="M249.924 77.1889C252.37 77.1889 254.337 79.1883 254.337 81.6244C254.337 84.0834 252.347 86.0598 249.924 86.0598C247.477 86.0598 245.51 84.0604 245.51 81.6244C245.51 79.1883 247.477 77.1889 249.924 77.1889Z" fill="#363338"/>
<path d="M258.773 92.8623C261.219 92.8623 263.186 94.8616 263.186 97.2977C263.186 99.7567 261.197 101.733 258.773 101.733C256.326 101.733 254.36 99.7337 254.36 97.2977C254.337 94.8616 256.326 92.8623 258.773 92.8623Z" fill="#363338"/>
<path d="M376.554 99.8945C379.001 99.8945 380.967 101.894 380.967 104.33C380.967 106.789 379.001 108.765 376.554 108.765C374.108 108.765 372.141 106.789 372.141 104.33C372.141 101.894 374.108 99.8945 376.554 99.8945Z" fill="#363338"/>
<path d="M356.524 108.214C358.97 108.214 360.937 110.213 360.937 112.65C360.937 115.109 358.947 117.085 356.524 117.085C354.077 117.085 352.111 115.086 352.111 112.65C352.111 110.191 354.1 108.214 356.524 108.214Z" fill="#363338"/>
<path d="M310.518 154.522C312.964 154.522 314.931 156.521 314.931 158.957C314.931 161.416 312.942 163.393 310.518 163.393C308.071 163.393 306.105 161.416 306.105 158.957C306.105 156.521 308.071 154.522 310.518 154.522Z" fill="#363338"/>
<path d="M205.678 138.412C208.125 138.412 210.091 140.411 210.091 142.847C210.091 145.306 208.102 147.282 205.678 147.282C203.232 147.282 201.265 145.283 201.265 142.847C201.242 140.388 203.232 138.412 205.678 138.412Z" fill="#363338"/>
<path d="M387.255 68.2949C389.702 68.2949 391.668 70.2943 391.668 72.7303C391.668 75.1893 389.679 77.1658 387.255 77.1658C384.809 77.1658 382.842 75.1664 382.842 72.7303C382.842 70.2943 384.832 68.2949 387.255 68.2949Z" fill="#363338"/>
<path d="M396.493 44.6926C398.94 44.6926 400.906 46.692 400.906 49.128C400.906 51.5871 398.917 53.5635 396.493 53.5635C394.047 53.5635 392.08 51.5641 392.08 49.128C392.08 46.669 394.047 44.6926 396.493 44.6926Z" fill="#363338"/>
<path d="M450.708 27.9852C454.458 27.9852 457.476 31.0418 457.476 34.7878C457.476 38.5567 454.435 41.5903 450.708 41.5903C446.958 41.5903 443.94 38.5338 443.94 34.7878C443.94 31.0188 446.958 27.9852 450.708 27.9852Z" fill="#363338"/>
<path d="M334.618 22.6533C337.065 22.6533 339.031 24.6527 339.031 27.0887C339.031 29.5477 337.042 31.5242 334.618 31.5242C332.172 31.5242 330.205 29.5248 330.205 27.0887C330.182 24.6527 332.172 22.6533 334.618 22.6533Z" fill="#363338"/>
<path d="M305.419 59.2861C307.865 59.2861 309.832 61.2855 309.832 63.7215C309.832 66.1805 307.843 68.157 305.419 68.157C302.972 68.157 301.006 66.1576 301.006 63.7215C301.006 61.2855 302.972 59.2861 305.419 59.2861Z" fill="#363338"/>
<path d="M343.765 32.3974C346.211 32.3974 348.178 34.3968 348.178 36.8328C348.178 39.2919 346.189 41.2683 343.765 41.2683C341.318 41.2683 339.352 39.2689 339.352 36.8328C339.352 34.3968 341.341 32.3974 343.765 32.3974Z" fill="#363338"/>
<path d="M361.257 14.5868C363.864 14.5868 365.967 16.7011 365.967 19.321C365.967 21.9409 363.864 24.0552 361.257 24.0552C358.65 24.0552 356.547 21.9409 356.547 19.321C356.547 16.7011 358.65 14.5868 361.257 14.5868Z" fill="#363338"/>
<path d="M346.143 55.2871C346.143 53.3833 344.607 51.8399 342.713 51.8399C340.819 51.8399 339.283 53.3833 339.283 55.2871C339.283 57.191 340.819 58.7344 342.713 58.7344C344.607 58.7344 346.143 57.191 346.143 55.2871Z" fill="#363338"/>
<path d="M282.965 70.34C285.411 70.34 287.378 72.3394 287.378 74.7755C287.378 77.2115 285.388 79.2109 282.965 79.2109C280.518 79.2109 278.552 77.2115 278.552 74.7755C278.552 72.3394 280.518 70.34 282.965 70.34Z" fill="#363338"/>
<path d="M301.006 119.544C303.452 119.544 305.419 121.543 305.419 123.979C305.419 126.415 303.43 128.415 301.006 128.415C298.559 128.415 296.593 126.415 296.593 123.979C296.593 121.543 298.559 119.544 301.006 119.544Z" fill="#363338"/>
<path d="M151.372 157.831C153.819 157.831 155.785 159.831 155.785 162.267C155.785 164.726 153.796 166.702 151.372 166.702C148.926 166.702 146.959 164.703 146.959 162.267C146.936 159.808 148.926 157.831 151.372 157.831Z" fill="#363338"/>
<path d="M145.244 204.438C149.429 204.438 152.813 207.839 152.813 212.045C152.813 216.25 149.429 219.652 145.244 219.652C141.06 219.652 137.676 216.25 137.676 212.045C137.676 207.839 141.06 204.438 145.244 204.438Z" fill="#363338"/>
<path d="M124.162 131.012C126.609 131.012 128.575 133.011 128.575 135.447C128.575 137.906 126.586 139.883 124.162 139.883C121.715 139.883 119.749 137.883 119.749 135.447C119.749 132.988 121.715 131.012 124.162 131.012Z" fill="#363338"/>
<path d="M179.017 0.568071C181.464 0.568071 183.43 2.56745 183.43 5.0035C183.43 7.46253 181.441 9.43896 179.017 9.43896C176.57 9.43896 174.604 7.43955 174.604 5.0035C174.604 2.54447 176.593 0.568071 179.017 0.568071Z" fill="#363338"/>
<path d="M141.106 10.8869C143.552 10.8869 145.519 12.8863 145.519 15.3223C145.519 17.7584 143.529 19.7578 141.106 19.7578C138.659 19.7578 136.692 17.7584 136.692 15.3223C136.692 12.8863 138.659 10.8869 141.106 10.8869Z" fill="#363338"/>
<path d="M220.244 15.8278C222.691 15.8278 224.657 17.8272 224.657 20.2633C224.657 22.7223 222.668 24.6987 220.244 24.6987C217.797 24.6987 215.831 22.6993 215.831 20.2633C215.831 17.8272 217.797 15.8278 220.244 15.8278Z" fill="#363338"/>
<path d="M245.556 2.7055C248.712 2.7055 251.273 5.27943 251.273 8.45089C251.273 11.6224 248.712 14.1963 245.556 14.1963C242.401 14.1963 239.863 11.6224 239.863 8.45089C239.863 5.27943 242.401 2.7055 245.556 2.7055Z" fill="#363338"/>
<path d="M272.378 0.68309C277.614 0.68309 281.867 4.95765 281.867 10.2204C281.867 15.4832 277.614 19.7578 272.378 19.7578C267.142 19.7578 262.889 15.4832 262.889 10.2204C262.889 4.95765 267.142 0.68309 272.378 0.68309Z" fill="#363338"/>
<path d="M258.75 25.5954C261.517 25.5954 263.78 27.8706 263.78 30.6513C263.78 33.4551 261.517 35.7073 258.75 35.7073C255.96 35.7073 253.719 33.4321 253.719 30.6513C253.719 27.8706 255.983 25.5954 258.75 25.5954Z" fill="#363338"/>
<path d="M480.41 73.8564C482.857 73.8564 484.824 75.8558 484.824 78.2918C484.824 80.7509 482.834 82.7273 480.41 82.7273C477.964 82.7273 475.997 80.7279 475.997 78.2918C475.975 75.8328 477.964 73.8564 480.41 73.8564Z" fill="#363338"/>
<path d="M399.283 151.879C401.729 151.741 403.81 153.602 403.947 156.038C404.107 158.497 402.232 160.589 399.809 160.727C397.362 160.865 395.281 159.003 395.144 156.567C395.007 154.131 396.859 152.017 399.283 151.879Z" fill="#363338"/>
<path d="M507.758 150.845C510.204 150.707 512.285 152.568 512.422 155.004C512.583 157.464 510.708 159.555 508.284 159.693C505.837 159.831 503.756 157.969 503.619 155.533C503.459 153.097 505.311 150.983 507.758 150.845Z" fill="#363338"/>
<path d="M406.074 169.759C408.521 169.621 410.601 171.482 410.739 173.918C410.876 176.377 409.024 178.469 406.6 178.607C404.176 178.744 402.072 176.883 401.935 174.447C401.798 172.011 403.65 169.897 406.074 169.759Z" fill="#363338"/>
<path d="M486.607 169.23C489.031 169.092 491.134 170.954 491.272 173.39C491.409 175.849 489.557 177.94 487.133 178.078C484.686 178.216 482.606 176.354 482.468 173.918C482.331 171.482 484.183 169.368 486.607 169.23Z" fill="#363338"/>
<path d="M587.422 172.953C589.869 172.815 591.95 174.677 592.087 177.113C592.224 179.572 590.372 181.663 587.948 181.801C585.502 181.939 583.421 180.077 583.261 177.641C583.146 175.205 584.999 173.114 587.422 172.953Z" fill="#363338"/>
<path d="M425.83 169.23C428.254 169.092 430.357 170.954 430.495 173.39C430.632 175.849 428.78 177.94 426.356 178.078C423.909 178.216 421.828 176.354 421.668 173.918C421.531 171.482 423.406 169.368 425.83 169.23Z" fill="#363338"/>
<path d="M365.099 265.753C367.545 265.615 369.626 267.476 369.786 269.912C369.923 272.371 368.071 274.463 365.647 274.601C363.201 274.739 361.12 272.877 360.983 270.441C360.8 268.005 362.675 265.891 365.099 265.753Z" fill="#363338"/>
<path d="M367.888 294.548C370.335 294.411 372.415 296.272 372.553 298.708C372.69 301.167 370.838 303.258 368.414 303.419C365.967 303.557 363.886 301.696 363.726 299.26C363.589 296.801 365.464 294.709 367.888 294.548Z" fill="#363338"/>
<path d="M362.926 230.591C365.373 230.453 367.454 232.314 367.591 234.75C367.728 237.209 365.876 239.301 363.452 239.439C361.006 239.576 358.925 237.715 358.788 235.279C358.628 232.843 360.48 230.729 362.926 230.591Z" fill="#363338"/>
<path d="M245.511 94.4709C247.957 94.4709 249.924 96.4703 249.924 98.9063C249.924 101.365 247.934 103.342 245.511 103.342C243.064 103.342 241.097 101.342 241.097 98.9063C241.075 96.4473 243.064 94.4709 245.511 94.4709Z" fill="#363338"/>
<path d="M85.7475 83.049C88.1942 83.049 90.1606 85.0484 90.1606 87.4845C90.1606 89.9435 88.1713 91.9199 85.7475 91.9199C83.3009 91.9199 81.3344 89.9205 81.3344 87.4845C81.3344 85.0254 83.3238 83.049 85.7475 83.049Z" fill="#363338"/>
<path d="M525.342 169.805C527.788 169.805 529.755 171.804 529.755 174.24C529.755 176.699 527.765 178.676 525.342 178.676C522.895 178.676 520.929 176.676 520.929 174.24C520.929 171.804 522.918 169.805 525.342 169.805Z" fill="#363338"/>
<path d="M259.642 213.378C262.088 213.378 264.055 215.377 264.055 217.813C264.055 220.272 262.065 222.249 259.642 222.249C257.195 222.249 255.228 220.249 255.228 217.813C255.206 215.377 257.195 213.378 259.642 213.378Z" fill="#363338"/>
<path d="M363.429 347.659C365.876 347.659 367.842 349.658 367.842 352.094C367.842 354.553 365.853 356.53 363.429 356.53C361.005 356.53 359.016 354.53 359.016 352.094C359.016 349.658 360.983 347.659 363.429 347.659Z" fill="#363338"/>
<path d="M324.626 337.731C327.073 337.731 329.039 339.73 329.039 342.166C329.039 344.602 327.05 346.602 324.626 346.602C322.179 346.602 320.213 344.602 320.213 342.166C320.213 339.73 322.179 337.731 324.626 337.731Z" fill="#363338"/>
<path d="M310.198 223.145C312.644 223.145 314.611 225.144 314.611 227.58C314.611 230.039 312.622 232.016 310.198 232.016C307.751 232.016 305.785 230.016 305.785 227.58C305.785 225.121 307.774 223.145 310.198 223.145Z" fill="#363338"/>
<path d="M350.03 229.672C352.477 229.672 354.443 231.671 354.443 234.107C354.443 236.566 352.454 238.543 350.03 238.543C347.583 238.543 345.617 236.543 345.617 234.107C345.617 231.671 347.583 229.672 350.03 229.672Z" fill="#363338"/>
<path d="M280.335 230.384C282.782 230.384 284.748 232.383 284.748 234.819C284.748 237.278 282.759 239.255 280.335 239.255C277.889 239.255 275.922 237.255 275.922 234.819C275.922 232.383 277.889 230.384 280.335 230.384Z" fill="#363338"/>
<path d="M347.972 281.863C350.419 281.863 352.385 283.862 352.385 286.298C352.385 288.757 350.396 290.734 347.972 290.734C345.525 290.734 343.559 288.734 343.559 286.298C343.559 283.839 345.525 281.863 347.972 281.863Z" fill="#363338"/>
<path d="M399.351 274.394C401.798 274.394 403.764 276.393 403.764 278.829C403.764 281.288 401.775 283.265 399.351 283.265C396.905 283.265 394.938 281.265 394.938 278.829C394.938 276.37 396.905 274.394 399.351 274.394Z" fill="#363338"/>
<path d="M233.323 225.949C235.77 225.949 237.736 227.948 237.736 230.384C237.736 232.843 235.747 234.82 233.323 234.82C230.876 234.82 228.91 232.82 228.91 230.384C228.887 227.925 230.876 225.949 233.323 225.949Z" fill="#363338"/>
<path d="M285.823 275.037C286.852 275.037 287.675 275.865 287.675 276.899C287.675 277.933 286.852 278.76 285.823 278.76C284.794 278.76 283.971 277.933 283.971 276.899C283.994 275.888 284.817 275.037 285.823 275.037Z" fill="#363338"/>
<path d="M222.851 233.349C225.297 233.349 227.264 235.348 227.264 237.784C227.264 240.243 225.274 242.22 222.851 242.22C220.404 242.22 218.437 240.22 218.437 237.784C218.415 235.348 220.404 233.349 222.851 233.349Z" fill="#363338"/>
<path d="M210.732 262.558C213.178 262.558 215.145 264.558 215.145 266.994C215.145 269.453 213.155 271.429 210.732 271.429C208.285 271.429 206.319 269.453 206.319 266.994C206.319 264.535 208.285 262.558 210.732 262.558Z" fill="#363338"/>
<path d="M396.996 231.234C396.996 234.383 394.435 236.957 391.303 236.957C388.17 236.957 385.609 234.383 385.609 231.234C385.609 228.086 388.17 225.512 391.303 225.512C394.435 225.512 396.996 228.086 396.996 231.234ZM388.147 231.234C388.147 232.981 389.565 234.383 391.28 234.383C393.018 234.383 394.412 232.958 394.412 231.234C394.412 229.488 392.995 228.086 391.28 228.086C389.565 228.086 388.147 229.488 388.147 231.234Z" fill="#363338"/>
<path d="M365.67 213.86C365.67 217.009 363.109 219.583 359.976 219.583C356.844 219.583 354.283 217.009 354.283 213.86C354.283 210.712 356.844 208.138 359.976 208.138C363.109 208.138 365.67 210.712 365.67 213.86ZM356.821 213.86C356.821 215.607 358.239 217.009 359.954 217.009C361.691 217.009 363.086 215.584 363.086 213.86C363.086 212.114 361.669 210.712 359.954 210.712C358.239 210.712 356.821 212.137 356.821 213.86Z" fill="#363338"/>
<path d="M406.348 260.766C406.348 263.914 403.787 266.488 400.655 266.488C397.522 266.488 394.961 263.914 394.961 260.766C394.961 257.617 397.522 255.043 400.655 255.043C403.81 255.043 406.348 257.617 406.348 260.766ZM397.522 260.766C397.522 262.512 398.94 263.914 400.655 263.914C402.393 263.914 403.787 262.489 403.787 260.766C403.787 259.019 402.37 257.617 400.655 257.617C398.94 257.617 397.522 259.019 397.522 260.766Z" fill="#363338"/>
<path d="M459.1 257.273C459.1 260.444 456.539 262.995 453.406 262.995C450.273 262.995 447.712 260.421 447.712 257.273C447.712 254.124 450.273 251.55 453.406 251.55C456.539 251.55 459.1 254.124 459.1 257.273ZM450.251 257.273C450.251 259.019 451.668 260.444 453.383 260.444C455.121 260.444 456.516 259.019 456.516 257.273C456.516 255.526 455.098 254.124 453.383 254.124C451.668 254.124 450.251 255.526 450.251 257.273Z" fill="#363338"/>
<path d="M361.417 321.322C361.417 324.471 358.856 327.044 355.723 327.044C352.591 327.044 350.03 324.471 350.03 321.322C350.03 318.174 352.591 315.6 355.723 315.6C358.856 315.577 361.417 318.151 361.417 321.322ZM352.591 321.322C352.591 323.069 354.009 324.471 355.723 324.471C357.461 324.471 358.856 323.046 358.856 321.322C358.856 319.575 357.438 318.174 355.723 318.174C353.986 318.151 352.591 319.575 352.591 321.322Z" fill="#363338"/>
<path d="M324.992 355.082C324.992 358.231 322.431 360.804 319.298 360.804C316.166 360.804 313.605 358.231 313.605 355.082C313.605 351.934 316.166 349.36 319.298 349.36C322.431 349.36 324.992 351.934 324.992 355.082ZM316.143 355.082C316.143 356.829 317.561 358.23 319.276 358.23C321.013 358.23 322.408 356.806 322.408 355.082C322.408 353.335 320.99 351.934 319.276 351.934C317.561 351.934 316.143 353.335 316.143 355.082Z" fill="#363338"/>
<path d="M251.456 262.719C251.456 265.867 248.895 268.441 245.762 268.441C242.629 268.441 240.068 265.867 240.068 262.719C240.068 259.571 242.629 256.997 245.762 256.997C248.918 256.974 251.456 259.548 251.456 262.719ZM242.629 262.719C242.629 264.466 244.047 265.867 245.762 265.867C247.5 265.867 248.895 264.443 248.895 262.719C248.895 260.972 247.477 259.571 245.762 259.571C244.024 259.548 242.629 260.972 242.629 262.719Z" fill="#363338"/>
<path d="M309.558 407.158C309.558 410.307 306.997 412.881 303.864 412.881C300.731 412.881 298.17 410.307 298.17 407.158C298.17 404.01 300.731 401.436 303.864 401.436C306.997 401.436 309.558 404.01 309.558 407.158ZM300.709 407.158C300.709 408.905 302.126 410.307 303.841 410.307C305.579 410.307 306.974 408.882 306.974 407.158C306.974 405.412 305.556 404.01 303.841 404.01C302.126 404.01 300.709 405.435 300.709 407.158Z" fill="#363338"/>
<path d="M291.174 437.586C291.174 440.734 288.613 443.308 285.48 443.308C282.347 443.308 279.786 440.734 279.786 437.586C279.786 434.437 282.347 431.864 285.48 431.864C288.635 431.864 291.174 434.437 291.174 437.586ZM282.347 437.586C282.347 439.333 283.765 440.734 285.48 440.734C287.218 440.734 288.613 439.31 288.613 437.586C288.613 435.839 287.195 434.437 285.48 434.437C283.765 434.437 282.347 435.839 282.347 437.586Z" fill="#363338"/>
<path d="M275.442 389.899C275.442 393.048 272.881 395.622 269.748 395.622C266.616 395.622 264.055 393.048 264.055 389.899C264.055 386.751 266.616 384.177 269.748 384.177C272.904 384.154 275.442 386.728 275.442 389.899ZM266.616 389.899C266.616 391.646 268.033 393.048 269.748 393.048C271.486 393.048 272.881 391.623 272.881 389.899C272.881 388.153 271.463 386.751 269.748 386.751C268.01 386.728 266.616 388.153 266.616 389.899Z" fill="#363338"/>
<path d="M279.603 45.2676C279.603 48.416 277.042 50.99 273.91 50.99C270.777 50.99 268.216 48.416 268.216 45.2676C268.216 42.1191 270.777 39.5452 273.91 39.5452C277.042 39.5452 279.603 42.0961 279.603 45.2676ZM270.754 45.2676C270.754 47.0142 272.172 48.416 273.887 48.416C275.625 48.416 277.02 46.9912 277.02 45.2676C277.02 43.521 275.602 42.1191 273.887 42.1191C272.172 42.0961 270.754 43.521 270.754 45.2676Z" fill="#363338"/>
<path d="M78.3391 166.151C78.3391 169.322 75.7781 171.873 72.6455 171.873C69.5129 171.873 66.9519 169.299 66.9519 166.151C66.9519 163.002 69.5129 160.428 72.6455 160.428C75.7781 160.428 78.3391 163.002 78.3391 166.151ZM69.5129 166.151C69.5129 167.897 70.9306 169.322 72.6455 169.322C74.3833 169.322 75.7781 167.897 75.7781 166.151C75.7781 164.404 74.3605 163.002 72.6455 163.002C70.9306 163.002 69.5129 164.404 69.5129 166.151Z" fill="#363338"/>
<path d="M71.5251 212.045C71.5251 215.193 68.9641 217.767 65.8315 217.767C62.6989 217.767 60.138 215.193 60.138 212.045C60.138 208.896 62.6989 206.322 65.8315 206.322C68.9641 206.322 71.5251 208.873 71.5251 212.045ZM62.6989 212.045C62.6989 213.791 64.1166 215.193 65.8315 215.193C67.5693 215.193 68.9642 213.768 68.9642 212.045C68.9642 210.298 67.5465 208.896 65.8315 208.896C64.0937 208.873 62.6989 210.298 62.6989 212.045Z" fill="#363338"/>
<path d="M32.379 231.625C32.379 234.796 29.818 237.347 26.6854 237.347C23.5528 237.347 20.9919 234.773 20.9919 231.625C20.9919 228.477 23.5528 225.903 26.6854 225.903C29.818 225.903 32.379 228.477 32.379 231.625ZM23.53 231.625C23.53 233.372 24.9476 234.773 26.6626 234.773C28.4004 234.773 29.7952 233.349 29.7952 231.625C29.7952 229.878 28.3775 228.477 26.6626 228.477C24.9476 228.477 23.53 229.878 23.53 231.625Z" fill="#363338"/>
<path d="M19.9399 181.824C19.9399 184.972 17.3789 187.546 14.2463 187.546C11.1137 187.546 8.55273 184.972 8.55273 181.824C8.55273 178.675 11.1137 176.101 14.2463 176.101C17.3789 176.101 19.9399 178.675 19.9399 181.824ZM11.1137 181.824C11.1137 183.57 12.5314 184.972 14.2463 184.972C15.9841 184.972 17.3789 183.547 17.3789 181.824C17.3789 180.077 15.9612 178.675 14.2463 178.675C12.5085 178.675 11.1137 180.077 11.1137 181.824Z" fill="#363338"/>
<path d="M129.718 241.645C129.718 244.793 127.157 247.367 124.025 247.367C120.892 247.367 118.331 244.793 118.331 241.645C118.331 238.497 120.892 235.923 124.025 235.923C127.18 235.923 129.718 238.497 129.718 241.645ZM120.892 241.645C120.892 243.392 122.31 244.794 124.025 244.794C125.763 244.794 127.157 243.369 127.157 241.645C127.157 239.898 125.74 238.497 124.025 238.497C122.287 238.497 120.892 239.898 120.892 241.645Z" fill="#363338"/>
<path d="M47.7676 264.19C47.7676 267.339 45.2066 269.913 42.074 269.913C38.9414 269.913 36.3804 267.339 36.3804 264.19C36.3804 261.042 38.9414 258.468 42.074 258.468C45.2066 258.468 47.7676 261.042 47.7676 264.19ZM38.9185 264.19C38.9185 265.937 40.3362 267.339 42.0511 267.339C43.7889 267.339 45.1838 265.914 45.1838 264.19C45.1838 262.467 43.7661 261.042 42.0511 261.042C40.3362 261.042 38.9185 262.467 38.9185 264.19Z" fill="#363338"/>
<path d="M240.755 202.002C240.755 205.15 238.194 207.724 235.061 207.724C231.928 207.724 229.367 205.15 229.367 202.002C229.367 198.853 231.928 196.279 235.061 196.279C238.194 196.256 240.755 198.83 240.755 202.002ZM231.928 202.002C231.928 203.748 233.346 205.15 235.061 205.15C236.776 205.15 238.194 203.725 238.194 202.002C238.194 200.255 236.776 198.853 235.061 198.853C233.346 198.853 231.928 200.255 231.928 202.002Z" fill="#363338"/>
<path d="M274.184 258.766C274.184 261.915 271.623 264.489 268.491 264.489C265.358 264.489 262.797 261.915 262.797 258.766C262.797 255.618 265.358 253.044 268.491 253.044C271.646 253.044 274.184 255.595 274.184 258.766ZM265.358 258.766C265.358 260.513 266.776 261.915 268.491 261.915C270.228 261.915 271.623 260.49 271.623 258.766C271.623 257.02 270.206 255.618 268.491 255.618C266.753 255.595 265.358 257.02 265.358 258.766Z" fill="#363338"/>
<path d="M305.305 286.988C305.305 290.136 302.744 292.71 299.611 292.71C296.478 292.71 293.917 290.136 293.917 286.988C293.917 283.839 296.478 281.265 299.611 281.265C302.744 281.265 305.305 283.816 305.305 286.988ZM296.456 286.988C296.456 288.734 297.873 290.136 299.588 290.136C301.326 290.136 302.721 288.711 302.721 286.988C302.721 285.241 301.303 283.839 299.588 283.839C297.873 283.816 296.456 285.241 296.456 286.988Z" fill="#363338"/>
<path d="M290.03 202.094C290.03 205.242 287.469 207.816 284.337 207.816C281.204 207.816 278.643 205.242 278.643 202.094C278.643 198.945 281.204 196.371 284.337 196.371C287.469 196.371 290.03 198.945 290.03 202.094ZM281.181 202.094C281.181 203.84 282.599 205.242 284.314 205.242C286.052 205.242 287.446 203.817 287.446 202.094C287.446 200.347 286.029 198.945 284.314 198.945C282.599 198.945 281.181 200.37 281.181 202.094Z" fill="#363338"/>
<path d="M233.552 181.318C233.552 184.467 230.991 187.041 227.858 187.041C224.726 187.041 222.165 184.467 222.165 181.318C222.165 178.17 224.726 175.596 227.858 175.596C230.991 175.596 233.552 178.17 233.552 181.318ZM224.703 181.318C224.703 183.065 226.12 184.467 227.835 184.467C229.573 184.467 230.968 183.042 230.968 181.318C230.968 179.572 229.55 178.17 227.835 178.17C226.12 178.17 224.703 179.595 224.703 181.318Z" fill="#363338"/>
<path d="M298.148 155.97C298.148 159.118 295.587 161.692 292.454 161.692C289.321 161.692 286.76 159.118 286.76 155.97C286.76 152.821 289.321 150.247 292.454 150.247C295.587 150.247 298.148 152.821 298.148 155.97ZM289.298 155.97C289.298 157.716 290.716 159.118 292.431 159.118C294.169 159.118 295.564 157.693 295.564 155.97C295.564 154.223 294.146 152.821 292.431 152.821C290.716 152.821 289.298 154.246 289.298 155.97Z" fill="#363338"/>
<path d="M177.851 207.035C177.851 210.183 175.29 212.757 172.157 212.757C169.025 212.757 166.464 210.183 166.464 207.035C166.464 203.886 169.025 201.312 172.157 201.312C175.29 201.312 177.851 203.886 177.851 207.035ZM169.002 207.035C169.002 208.781 170.42 210.183 172.134 210.183C173.872 210.183 175.267 208.758 175.267 207.035C175.267 205.288 173.849 203.886 172.134 203.886C170.42 203.886 169.002 205.288 169.002 207.035Z" fill="#363338"/>
<path d="M204.169 257.18C204.169 260.329 201.608 262.903 198.476 262.903C195.343 262.903 192.782 260.329 192.782 257.18C192.782 254.032 195.343 251.458 198.476 251.458C201.608 251.435 204.169 254.009 204.169 257.18ZM195.32 257.18C195.32 258.927 196.738 260.329 198.453 260.329C200.191 260.329 201.586 258.904 201.586 257.18C201.586 255.434 200.168 254.032 198.453 254.032C196.738 254.009 195.32 255.434 195.32 257.18Z" fill="#363338"/>
<path d="M170.648 156.291C170.648 159.463 168.087 162.014 164.954 162.014C161.822 162.014 159.261 159.44 159.261 156.291C159.261 153.143 161.822 150.569 164.954 150.569C168.087 150.569 170.648 153.12 170.648 156.291ZM161.799 156.291C161.799 158.038 163.217 159.44 164.932 159.44C166.669 159.44 168.064 158.015 168.064 156.291C168.064 154.545 166.647 153.143 164.932 153.143C163.217 153.12 161.799 154.545 161.799 156.291Z" fill="#363338"/>
<path d="M166.441 38.4649C166.441 41.6133 163.88 44.1873 160.747 44.1873C157.615 44.1873 155.054 41.6133 155.054 38.4649C155.054 35.3164 157.615 32.7424 160.747 32.7424C163.88 32.7424 166.441 35.3164 166.441 38.4649ZM157.592 38.4649C157.592 40.2115 159.009 41.6133 160.724 41.6133C162.462 41.6133 163.857 40.1885 163.857 38.4649C163.857 36.7412 162.439 35.3164 160.724 35.3164C159.009 35.3164 157.592 36.7183 157.592 38.4649Z" fill="#363338"/>
<path d="M139.368 38.4649C139.368 41.6133 136.807 44.1873 133.674 44.1873C130.541 44.1873 127.98 41.6133 127.98 38.4649C127.98 35.3164 130.541 32.7424 133.674 32.7424C136.807 32.7424 139.368 35.3164 139.368 38.4649ZM130.541 38.4649C130.541 40.2115 131.959 41.6133 133.674 41.6133C135.412 41.6133 136.807 40.1885 136.807 38.4649C136.807 36.7412 135.389 35.3164 133.674 35.3164C131.936 35.3164 130.541 36.7183 130.541 38.4649Z" fill="#363338"/>
<path d="M51.0601 150.155C51.0601 153.304 48.4991 155.878 45.3665 155.878C42.2339 155.878 39.673 153.304 39.673 150.155C39.673 147.007 42.2339 144.433 45.3665 144.433C48.4991 144.41 51.0601 146.984 51.0601 150.155ZM42.2111 150.155C42.2111 151.902 43.6287 153.304 45.3437 153.304C47.0815 153.304 48.4763 151.879 48.4763 150.155C48.4763 148.409 47.0586 147.007 45.3437 147.007C43.6287 146.984 42.2111 148.409 42.2111 150.155Z" fill="#363338"/>
<path d="M47.4016 219.215C47.4016 222.364 44.8407 224.937 41.7081 224.937C38.5755 224.937 36.0145 222.364 36.0145 219.215C36.0145 216.067 38.5755 213.493 41.7081 213.493C44.8407 213.493 47.4016 216.067 47.4016 219.215ZM38.5755 219.215C38.5755 220.962 39.9931 222.364 41.7081 222.364C43.4459 222.364 44.8407 220.939 44.8407 219.215C44.8407 217.468 43.423 216.067 41.7081 216.067C39.9703 216.067 38.5755 217.491 38.5755 219.215Z" fill="#363338"/>
<path d="M388.49 57.1487C388.49 60.2971 385.929 62.8711 382.797 62.8711C379.641 62.8711 377.103 60.2971 377.103 57.1487C377.103 53.9772 379.664 51.4263 382.797 51.4263C385.929 51.4263 388.49 54.0002 388.49 57.1487ZM379.641 57.1487C379.641 58.8953 381.059 60.2972 382.797 60.2972C384.534 60.2972 385.929 58.8723 385.929 57.1487C385.929 55.4021 384.512 54.0002 382.797 54.0002C381.059 54.0002 379.641 55.4021 379.641 57.1487Z" fill="#363338"/>
<path d="M464.382 59.8606C464.382 63.0091 461.821 65.583 458.688 65.583C455.555 65.583 452.995 63.0091 452.995 59.8606C452.995 56.7121 455.555 54.1382 458.688 54.1382C461.821 54.1152 464.382 56.6892 464.382 59.8606ZM455.533 59.8606C455.533 61.6072 456.95 63.0091 458.665 63.0091C460.403 63.0091 461.798 61.5842 461.798 59.8606C461.798 58.114 460.38 56.7121 458.665 56.7121C456.95 56.6891 455.533 58.114 455.533 59.8606Z" fill="#363338"/>
<path d="M501.561 47.1289C501.561 50.2774 499 52.8513 495.868 52.8513C492.735 52.8513 490.174 50.2774 490.174 47.1289C490.174 43.9804 492.735 41.4065 495.868 41.4065C499 41.4065 501.561 43.9804 501.561 47.1289ZM492.735 47.1289C492.735 48.8755 494.153 50.2774 495.868 50.2774C497.605 50.2774 499 48.8525 499 47.1289C499 45.3823 497.583 43.9804 495.868 43.9804C494.13 43.9804 492.735 45.3823 492.735 47.1289Z" fill="#363338"/>
<path d="M671.111 70.708C671.111 73.8565 668.55 76.4304 665.417 76.4304C662.285 76.4304 659.724 73.8565 659.724 70.708C659.724 67.5596 662.285 64.9856 665.417 64.9856C668.55 64.9856 671.111 67.5596 671.111 70.708ZM662.262 70.708C662.262 72.4546 663.68 73.8565 665.395 73.8565C667.132 73.8565 668.527 72.4316 668.527 70.708C668.527 68.9614 667.11 67.5595 665.395 67.5595C663.68 67.5595 662.262 68.9614 662.262 70.708Z" fill="#363338"/>
<path d="M356.524 71.811C356.524 74.9595 353.963 77.5334 350.83 77.5334C347.675 77.5334 345.137 74.9595 345.137 71.811C345.137 68.6625 347.698 66.0886 350.83 66.0886C353.963 66.0656 356.524 68.6396 356.524 71.811ZM347.675 71.811C347.675 73.5576 349.092 74.9595 350.83 74.9595C352.568 74.9595 353.963 73.5346 353.963 71.811C353.963 70.0644 352.545 68.6626 350.83 68.6626C349.092 68.6396 347.675 70.0644 347.675 71.811Z" fill="#363338"/>
<path d="M365.762 135.263C365.762 138.412 363.201 140.986 360.068 140.986C356.935 140.986 354.375 138.412 354.375 135.263C354.375 132.115 356.935 129.541 360.068 129.541C363.201 129.541 365.762 132.115 365.762 135.263ZM356.913 135.263C356.913 137.01 358.33 138.412 360.045 138.412C361.783 138.412 363.178 136.987 363.178 135.263C363.178 133.517 361.76 132.115 360.045 132.115C358.33 132.115 356.913 133.517 356.913 135.263Z" fill="#363338"/>
<path d="M214.139 108.926C214.139 112.075 211.578 114.649 208.445 114.649C205.313 114.649 202.752 112.075 202.752 108.926C202.752 105.755 205.313 103.204 208.445 103.204C211.578 103.204 214.139 105.755 214.139 108.926ZM205.29 108.926C205.29 110.673 206.707 112.075 208.422 112.075C210.16 112.075 211.555 110.65 211.555 108.926C211.555 107.18 210.137 105.755 208.422 105.755C206.707 105.755 205.29 107.18 205.29 108.926Z" fill="#363338"/>
<path d="M54.0099 82.8879C54.0099 86.0594 51.4489 88.6104 48.3163 88.6104C45.1837 88.6104 42.6227 86.0364 42.6227 82.8879C42.6227 79.7394 45.1837 77.1655 48.3163 77.1655C51.4489 77.1425 54.0099 79.7165 54.0099 82.8879ZM45.1608 82.8879C45.1608 84.6345 46.5785 86.0594 48.2934 86.0594C50.0312 86.0594 51.426 84.6345 51.426 82.8879C51.426 81.1413 50.0083 79.7395 48.2934 79.7395C46.5785 79.7165 45.1608 81.1413 45.1608 82.8879Z" fill="#363338"/>
<path d="M97.1576 76.8672C97.1576 80.0386 94.5966 82.5896 91.464 82.5896C88.3314 82.5896 85.7704 80.0156 85.7704 76.8672C85.7704 73.7187 88.3314 71.1448 91.464 71.1448C94.5966 71.1448 97.1576 73.7187 97.1576 76.8672ZM88.3085 76.8672C88.3085 78.6138 89.7262 80.0386 91.4411 80.0386C93.1789 80.0386 94.5737 78.6138 94.5737 76.8672C94.5737 75.1206 93.156 73.7187 91.4411 73.7187C89.7262 73.7187 88.3085 75.1206 88.3085 76.8672Z" fill="#363338"/>
<path d="M347.789 118.854C347.789 122.003 345.228 124.577 342.095 124.577C338.963 124.577 336.402 122.003 336.402 118.854C336.402 115.683 338.963 113.132 342.095 113.132C345.228 113.132 347.789 115.706 347.789 118.854ZM338.94 118.854C338.94 120.601 340.358 122.003 342.073 122.003C343.81 122.003 345.205 120.578 345.205 118.854C345.205 117.108 343.787 115.706 342.073 115.706C340.358 115.706 338.94 117.131 338.94 118.854Z" fill="#363338"/>
<path d="M325.289 124.6C325.289 127.748 322.728 130.322 319.596 130.322C316.463 130.322 313.902 127.748 313.902 124.6C313.902 121.451 316.463 118.877 319.596 118.877C322.728 118.854 325.289 121.428 325.289 124.6ZM316.463 124.6C316.463 126.346 317.881 127.748 319.596 127.748C321.333 127.748 322.728 126.323 322.728 124.6C322.728 122.853 321.311 121.451 319.596 121.451C317.858 121.428 316.463 122.853 316.463 124.6Z" fill="#363338"/>
<path d="M305.419 112.466C305.419 115.614 302.858 118.188 299.725 118.188C296.593 118.188 294.032 115.614 294.032 112.466C294.032 109.294 296.593 106.743 299.725 106.743C302.858 106.743 305.419 109.294 305.419 112.466ZM296.593 112.466C296.593 114.212 298.01 115.614 299.725 115.614C301.463 115.614 302.858 114.189 302.858 112.466C302.858 110.742 301.44 109.317 299.725 109.317C297.987 109.294 296.593 110.719 296.593 112.466Z" fill="#363338"/>
<path d="M436.943 193.751C436.943 196.9 434.382 199.474 431.249 199.474C428.116 199.474 425.556 196.9 425.556 193.751C425.556 190.603 428.116 188.029 431.249 188.029C434.382 188.029 436.943 190.58 436.943 193.751ZM428.094 193.751C428.094 195.498 429.511 196.9 431.226 196.9C432.964 196.9 434.359 195.475 434.359 193.751C434.359 192.005 432.941 190.603 431.226 190.603C429.511 190.58 428.094 192.005 428.094 193.751Z" fill="#363338"/>
<path d="M489.168 241.737C489.168 244.886 486.607 247.459 483.474 247.459C480.342 247.459 477.781 244.886 477.781 241.737C477.781 238.589 480.342 236.015 483.474 236.015C486.607 236.015 489.168 238.589 489.168 241.737ZM480.342 241.737C480.342 243.484 481.76 244.886 483.474 244.886C485.212 244.886 486.607 243.461 486.607 241.737C486.607 239.99 485.189 238.589 483.474 238.589C481.737 238.589 480.342 239.99 480.342 241.737Z" fill="#363338"/>
<path d="M530.395 101.365C530.395 104.514 527.834 107.088 524.701 107.088C521.569 107.088 519.008 104.514 519.008 101.365C519.008 98.2167 521.569 95.6428 524.701 95.6428C527.834 95.6428 530.395 98.1938 530.395 101.365ZM521.569 101.365C521.569 103.112 522.986 104.514 524.701 104.514C526.439 104.514 527.834 103.089 527.834 101.365C527.834 99.6416 526.416 98.2168 524.701 98.2168C522.964 98.1938 521.569 99.6186 521.569 101.365Z" fill="#363338"/>
<path d="M455.624 106.444C455.624 109.593 453.063 112.167 449.93 112.167C446.775 112.167 444.237 109.593 444.237 106.444C444.237 103.296 446.798 100.722 449.93 100.722C453.063 100.722 455.624 103.296 455.624 106.444ZM446.775 106.444C446.775 108.191 448.193 109.593 449.93 109.593C451.668 109.593 453.063 108.168 453.063 106.444C453.063 104.697 451.645 103.296 449.93 103.296C448.193 103.296 446.775 104.697 446.775 106.444Z" fill="#363338"/>
<path d="M427.522 218.434C427.522 221.582 424.961 224.156 421.828 224.156C418.696 224.156 416.135 221.582 416.135 218.434C416.135 215.285 418.696 212.711 421.828 212.711C424.984 212.711 427.522 215.285 427.522 218.434ZM418.696 218.434C418.696 220.18 420.113 221.582 421.828 221.582C423.566 221.582 424.961 220.157 424.961 218.434C424.961 216.687 423.543 215.285 421.828 215.285C420.113 215.285 418.696 216.687 418.696 218.434Z" fill="#363338"/>
<path d="M594.419 240.404C594.419 243.553 591.858 246.126 588.726 246.126C585.593 246.126 583.032 243.553 583.032 240.404C583.032 237.256 585.593 234.682 588.726 234.682C591.858 234.682 594.419 237.256 594.419 240.404ZM585.57 240.404C585.57 242.151 586.988 243.553 588.703 243.553C590.44 243.553 591.835 242.128 591.835 240.404C591.835 238.68 590.418 237.256 588.703 237.256C586.988 237.256 585.57 238.657 585.57 240.404Z" fill="#363338"/>
<path d="M677.353 225.512C677.353 228.66 674.792 231.234 671.66 231.234C668.527 231.234 665.966 228.66 665.966 225.512C665.966 222.363 668.527 219.789 671.66 219.789C674.792 219.789 677.353 222.363 677.353 225.512ZM668.504 225.512C668.504 227.258 669.922 228.66 671.637 228.66C673.375 228.66 674.77 227.235 674.77 225.512C674.77 223.765 673.352 222.363 671.637 222.363C669.922 222.363 668.504 223.765 668.504 225.512Z" fill="#363338"/>
<path d="M52.6838 173.275C52.6838 170.825 50.7079 168.839 48.2707 168.839C45.8334 168.839 43.8576 170.825 43.8576 173.275C43.8576 175.724 45.8334 177.71 48.2707 177.71C50.7079 177.71 52.6838 175.724 52.6838 173.275Z" fill="#363338"/>
<path d="M305.419 198.738L305.419 217.836L314.931 217.836L314.931 198.738L305.419 198.738Z" fill="#363338"/>
<path d="M555.959 79.2341L555.959 83.4397L565.402 83.4397L565.402 79.2341L555.959 79.2341Z" fill="#363338"/>
<path d="M571.187 79.2341L571.187 83.4397L580.631 83.4397L580.631 79.2341L571.187 79.2341Z" fill="#363338"/>
<path d="M586.416 79.2341L586.416 83.4397L595.86 83.4397L595.86 79.2341L586.416 79.2341Z" fill="#363338"/>
<path d="M506.569 230.775L506.569 247.666L512.445 247.666L512.445 230.775L506.569 230.775Z" fill="#363338"/>
<path d="M517.453 230.775L517.453 247.666L523.329 247.666L523.329 230.775L517.453 230.775Z" fill="#363338"/>
<path d="M528.337 230.775L528.337 247.666L534.213 247.666L534.213 230.775L528.337 230.775Z" fill="#363338"/>
<path d="M569.473 46.83L569.473 63.7214L575.349 63.7214L575.349 46.83L569.473 46.83Z" fill="#363338"/>
<path d="M580.334 46.83L580.334 63.7214L586.21 63.7214L586.21 46.83L580.334 46.83Z" fill="#363338"/>
<path d="M591.218 46.83L591.218 63.7214L597.094 63.7214L597.094 46.83L591.218 46.83Z" fill="#363338"/>
<path d="M539.198 230.775L539.198 247.666L545.075 247.666L545.075 230.775L539.198 230.775Z" fill="#363338"/>
<path d="M550.082 230.775L550.082 247.666L555.959 247.666L555.959 230.775L550.082 230.775Z" fill="#363338"/>
<path d="M54.0099 245.92L54.0099 259.226L58.2172 259.226L58.2172 245.92L54.0099 245.92Z" fill="#363338"/>
<path d="M61.7156 245.92L61.7156 259.226L65.9229 259.226L65.9229 245.92L61.7156 245.92Z" fill="#363338"/>
<path d="M69.4213 245.92L69.4213 259.226L73.6286 259.226L73.6286 245.92L69.4213 245.92Z" fill="#363338"/>
<path d="M103.514 98.5159C103.514 97.1705 102.429 96.0798 101.09 96.0798C99.7519 96.0798 98.6667 97.1705 98.6667 98.5159C98.6667 99.8613 99.7519 100.952 101.09 100.952C102.429 100.952 103.514 99.8613 103.514 98.5159Z" fill="#363338"/>
<path d="M92.6073 138.412C92.6073 137.066 91.5221 135.976 90.1835 135.976C88.8449 135.976 87.7597 137.066 87.7597 138.412C87.7597 139.757 88.8449 140.848 90.1835 140.848C91.5221 140.848 92.6073 139.757 92.6073 138.412Z" fill="#363338"/>
<path d="M115.061 98.5159C115.061 97.1705 113.976 96.0798 112.638 96.0798C111.299 96.0798 110.214 97.1705 110.214 98.5159C110.214 99.8613 111.299 100.952 112.638 100.952C113.976 100.952 115.061 99.8613 115.061 98.5159Z" fill="#363338"/>
<path d="M126.609 98.5159C126.609 97.1705 125.523 96.0798 124.185 96.0798C122.846 96.0798 121.761 97.1705 121.761 98.5159C121.761 99.8613 122.846 100.952 124.185 100.952C125.523 100.952 126.609 99.8613 126.609 98.5159Z" fill="#363338"/>
<path d="M138.156 98.5159C138.156 97.1705 137.071 96.0798 135.732 96.0798C134.394 96.0798 133.308 97.1705 133.308 98.5159C133.308 99.8613 134.394 100.952 135.732 100.952C137.071 100.952 138.156 99.8613 138.156 98.5159Z" fill="#363338"/>
<path d="M180.297 81.624C180.297 80.2786 179.212 79.188 177.874 79.188C176.535 79.188 175.45 80.2786 175.45 81.624C175.45 82.9694 176.535 84.0601 177.874 84.0601C179.212 84.0601 180.297 82.9694 180.297 81.624Z" fill="#363338"/>
<path d="M191.845 81.624C191.845 80.2786 190.759 79.188 189.421 79.188C188.082 79.188 186.997 80.2786 186.997 81.624C186.997 82.9694 188.082 84.0601 189.421 84.0601C190.759 84.0601 191.845 82.9694 191.845 81.624Z" fill="#363338"/>
<path d="M185.808 179.641C186.54 179.641 187.134 180.238 187.134 180.973C187.134 181.709 186.54 182.306 185.808 182.306C185.076 182.306 184.482 181.709 184.482 180.973C184.482 180.238 185.076 179.641 185.808 179.641Z" fill="#363338"/>
<path d="M192.142 179.641C192.873 179.641 193.468 180.238 193.468 180.973C193.468 181.709 192.873 182.306 192.142 182.306C191.41 182.306 190.816 181.709 190.816 180.973C190.793 180.238 191.387 179.641 192.142 179.641Z" fill="#363338"/>
<path d="M198.453 179.641C199.185 179.641 199.779 180.238 199.779 180.973C199.779 181.709 199.185 182.306 198.453 182.306C197.721 182.306 197.127 181.709 197.127 180.973C197.127 180.238 197.721 179.641 198.453 179.641Z" fill="#363338"/>
<path d="M239.474 171.528C240.915 171.528 242.081 172.7 242.081 174.148C242.081 175.596 240.915 176.768 239.474 176.768C238.033 176.768 236.867 175.596 236.867 174.148C236.867 172.7 238.033 171.528 239.474 171.528Z" fill="#363338"/>
<path d="M251.844 171.528C253.285 171.528 254.451 172.7 254.451 174.148C254.451 175.596 253.285 176.768 251.844 176.768C250.404 176.768 249.238 175.596 249.238 174.148C249.238 172.7 250.404 171.528 251.844 171.528Z" fill="#363338"/>
<path d="M264.192 171.528C265.632 171.528 266.799 172.7 266.799 174.148C266.799 175.596 265.632 176.768 264.192 176.768C262.751 176.768 261.585 175.596 261.585 174.148C261.585 172.7 262.751 171.528 264.192 171.528Z" fill="#363338"/>
<path d="M254.314 110.627L254.314 128.438L272.035 128.438L272.035 110.627L254.314 110.627Z" fill="#363338"/>
<path d="M250.107 197.888L250.107 210.551L270.571 210.551L270.571 197.888L250.107 197.888Z" fill="#363338"/>
<path d="M304.55 45.2443L304.55 63.7214L305.785 63.7214L305.785 45.2443L304.55 45.2443Z" fill="#363338"/>
<path d="M271.875 12.1049L271.875 30.582L273.109 30.582L273.109 12.1049L271.875 12.1049Z" fill="#363338"/>
<path d="M149.52 15.9429L149.52 37.6145L150.755 37.6145L150.755 15.9429L149.52 15.9429Z" fill="#363338"/>
<path d="M85.153 86.0595L85.153 107.731L86.3877 107.731L86.3877 86.0595L85.153 86.0595Z" fill="#363338"/>
<path d="M262.568 116.648L262.568 135.125L263.803 135.125L263.803 116.648L262.568 116.648Z" fill="#363338"/>
<path d="M309.237 193.406L309.237 203.312L310.472 203.312L310.472 193.406L309.237 193.406Z" fill="#363338"/>
<path d="M330.343 243.736L330.343 253.641L331.577 253.641L331.577 243.736L330.343 243.736Z" fill="#363338"/>
<path d="M335.419 243.736L335.419 253.641L336.653 253.641L336.653 243.736L335.419 243.736Z" fill="#363338"/>
<path d="M412.316 203.312L412.316 231.579L413.551 231.579L413.551 203.312L412.316 203.312Z" fill="#363338"/>
<path d="M382.225 34.1213L382.225 52.3457L383.46 52.3457L383.46 34.1213L382.225 34.1213Z" fill="#363338"/>
<path d="M416.409 9.99084L416.409 33.1562L417.644 33.1562L417.644 9.99084L416.409 9.99084Z" fill="#363338"/>
<path d="M410.075 9.99084L410.075 33.1562L411.31 33.1562L411.31 9.99084L410.075 9.99084Z" fill="#363338"/>
<path d="M403.741 9.99084L403.741 33.1562L404.976 33.1562L404.976 9.99084L403.741 9.99084Z" fill="#363338"/>
<path d="M397.408 9.99084L397.408 33.1562L398.642 33.1562L398.642 9.99084L397.408 9.99084Z" fill="#363338"/>
<path d="M391.074 9.99084L391.074 33.1562L392.309 33.1562L392.309 9.99084L391.074 9.99084Z" fill="#363338"/>
<path d="M359.085 167.07L359.085 181.203L360.32 181.203L360.32 167.07L359.085 167.07Z" fill="#363338"/>
<path d="M353.368 167.07L353.368 181.203L354.603 181.203L354.603 167.07L353.368 167.07Z" fill="#363338"/>
<path d="M347.629 167.07L347.629 181.203L348.864 181.203L348.864 167.07L347.629 167.07Z" fill="#363338"/>
<path d="M341.89 167.07L341.89 181.203L343.125 181.203L343.125 167.07L341.89 167.07Z" fill="#363338"/>
<path d="M336.15 167.07L336.15 181.203L337.385 181.203L337.385 167.07L336.15 167.07Z" fill="#363338"/>
<path d="M330.411 167.07L330.411 181.203L331.646 181.203L331.646 167.07L330.411 167.07Z" fill="#363338"/>
<path d="M324.672 167.07L324.672 181.203L325.907 181.203L325.907 167.07L324.672 167.07Z" fill="#363338"/>
<path d="M186.334 61.1017L186.334 75.2354L187.569 75.2354L187.569 61.1017L186.334 61.1017Z" fill="#363338"/>
<path d="M180.618 61.1017L180.618 75.2354L181.852 75.2354L181.852 61.1017L180.618 61.1017Z" fill="#363338"/>
<path d="M174.878 61.1017L174.878 75.2354L176.113 75.2354L176.113 61.1017L174.878 61.1017Z" fill="#363338"/>
<path d="M213.682 79.188L213.682 103.962L214.916 103.962L214.916 79.188L213.682 79.188Z" fill="#363338"/>
<path d="M207.942 75.8097L207.942 103.962L209.177 103.962L209.177 75.8097L207.942 75.8097Z" fill="#363338"/>
<path d="M202.226 79.1882L202.226 107.456L203.46 107.456L203.46 79.1882L202.226 79.1882Z" fill="#363338"/>
<path d="M164.246 137.24L164.246 151.373L165.48 151.373L165.48 137.24L164.246 137.24Z" fill="#363338"/>
<path d="M113.644 154.108L113.644 181.755L114.879 181.755L114.879 154.108L113.644 154.108Z" fill="#363338"/>
<path d="M58.08 138.389L58.08 163.554L59.3148 163.554L59.3148 138.389L58.08 138.389Z" fill="#363338"/>
<path d="M658.649 131.288L658.649 149.466L659.884 149.466L659.884 131.288L658.649 131.288Z" fill="#363338"/>
<path d="M652.91 131.288L652.91 149.466L654.145 149.466L654.145 131.288L652.91 131.288Z" fill="#363338"/>
<path d="M647.171 131.288L647.171 149.466L648.405 149.466L648.405 131.288L647.171 131.288Z" fill="#363338"/>
<path d="M641.454 131.288L641.454 149.466L642.689 149.466L642.689 131.288L641.454 131.288Z" fill="#363338"/>
<path d="M635.715 131.288L635.715 149.466L636.95 149.466L636.95 131.288L635.715 131.288Z" fill="#363338"/>
<path d="M629.976 131.288L629.976 149.466L631.21 149.466L631.21 131.288L629.976 131.288Z" fill="#363338"/>
<path d="M624.236 131.288L624.236 149.466L625.471 149.466L625.471 131.288L624.236 131.288Z" fill="#363338"/>
<path d="M577.727 202.645L577.727 225.765L578.962 225.765L578.962 202.645L577.727 202.645Z" fill="#363338"/>
<path d="M571.988 202.645L571.988 225.765L573.223 225.765L573.223 202.645L571.988 202.645Z" fill="#363338"/>
<path d="M566.248 202.645L566.248 225.765L567.483 225.765L567.483 202.645L566.248 202.645Z" fill="#363338"/>
<path d="M560.532 202.645L560.532 225.765L561.767 225.765L561.767 202.645L560.532 202.645Z" fill="#363338"/>
<path d="M554.793 202.645L554.793 225.765L556.027 225.765L556.027 202.645L554.793 202.645Z" fill="#363338"/>
<path d="M549.053 202.645L549.053 225.765L550.288 225.765L550.288 202.645L549.053 202.645Z" fill="#363338"/>
<path d="M543.314 202.645L543.314 225.765L544.549 225.765L544.549 202.645L543.314 202.645Z" fill="#363338"/>
<path d="M376.486 166.61L376.486 180.744L377.72 180.744L377.72 166.61L376.486 166.61Z" fill="#363338"/>
<path d="M347.583 253.618L347.583 284.437L348.818 284.437L348.818 253.618L347.583 253.618Z" fill="#363338"/>
<path d="M421.211 68.134L421.211 96.7461L422.446 96.7461L422.446 68.134L421.211 68.134Z" fill="#363338"/>
<path d="M264.741 143.192L264.741 157.326L265.975 157.326L265.975 143.192L264.741 143.192Z" fill="#363338"/>
<path d="M130.656 212.229L130.656 226.362L131.891 226.362L131.891 212.229L130.656 212.229Z" fill="#363338"/>
<path d="M285.206 241.346L285.206 277.267L286.44 277.267L286.44 241.346L285.206 241.346Z" fill="#363338"/>
<path d="M349.412 118.877L349.412 149.926L350.647 149.926L350.647 118.877L349.412 118.877Z" fill="#363338"/>
<path d="M370.015 156.314L370.015 167.828L371.249 167.828L371.249 156.314L370.015 156.314Z" fill="#363338"/>
<path d="M340.495 243.736L340.495 253.641L341.73 253.641L341.73 243.736L340.495 243.736Z" fill="#363338"/>
<path d="M316.554 388.221L316.554 408.146L317.789 408.146L317.789 388.221L316.554 388.221Z" fill="#363338"/>
<path d="M321.631 388.221L321.631 408.146L322.866 408.146L322.866 388.221L321.631 388.221Z" fill="#363338"/>
<path d="M326.707 388.221L326.707 408.146L327.942 408.146L327.942 388.221L326.707 388.221Z" fill="#363338"/>
<path d="M238.925 44.6467L238.925 45.8877L269.291 45.8877L269.291 44.6467L238.925 44.6467Z" fill="#363338"/>
<path d="M260.808 29.9616L260.808 31.2026L298.148 31.2026L298.148 29.9616L260.808 29.9616Z" fill="#363338"/>
<path d="M266.318 123.382L266.318 124.623L300.937 124.623L300.937 123.382L266.318 123.382Z" fill="#363338"/>
<path d="M145.359 106.835L145.359 108.076L203.666 108.076L203.666 106.835L145.359 106.835Z" fill="#363338"/>
<path d="M171.243 216.457L171.243 217.698L184.916 217.698L184.916 216.457L171.243 216.457Z" fill="#363338"/>
<path d="M171.243 223.214L171.243 224.455L184.916 224.455L184.916 223.214L171.243 223.214Z" fill="#363338"/>
<path d="M171.243 229.97L171.243 231.211L184.916 231.211L184.916 229.97L171.243 229.97Z" fill="#363338"/>
<path d="M171.243 236.704L171.243 237.945L184.916 237.945L184.916 236.704L171.243 236.704Z" fill="#363338"/>
<path d="M171.243 243.46L171.243 244.701L184.916 244.701L184.916 243.46L171.243 243.46Z" fill="#363338"/>
<path d="M285.617 257.112L285.617 258.353L299.291 258.353L299.291 257.112L285.617 257.112Z" fill="#363338"/>
<path d="M285.617 263.868L285.617 265.109L299.291 265.109L299.291 263.868L285.617 263.868Z" fill="#363338"/>
<path d="M285.617 270.625L285.617 271.866L299.291 271.866L299.291 270.625L285.617 270.625Z" fill="#363338"/>
<path d="M246.265 226.018L246.265 227.259L298.262 227.259L298.262 226.018L246.265 226.018Z" fill="#363338"/>
<path d="M299.908 260.72L299.908 261.961L319.298 261.961L319.298 260.72L299.908 260.72Z" fill="#363338"/>
<path d="M299.725 243.759L299.725 245L319.116 245L319.116 243.759L299.725 243.759Z" fill="#363338"/>
<path d="M285.823 387.624L285.823 388.865L345.594 388.865L345.594 387.624L285.823 387.624Z" fill="#363338"/>
<path d="M107.31 225.282L107.31 226.523L152.744 226.523L152.744 225.282L107.31 225.282Z" fill="#363338"/>
<path d="M71.5251 247.712L71.5251 248.953L109.757 248.953L109.757 247.712L71.5251 247.712Z" fill="#363338"/>
<path d="M77.2644 160.451L77.2644 161.692L122.699 161.692L122.699 160.451L77.2644 160.451Z" fill="#363338"/>
<path d="M375.548 123.198L375.548 144.318L379.915 144.318L379.915 123.198L375.548 123.198Z" fill="#363338"/>
<path d="M455.624 142.227L447.186 150.247L415.129 150.247L415.129 142.227L455.624 142.227Z" fill="#363338"/>
</g>
</svg>
