<svg width="82" height="82" viewBox="0 0 82 82" fill="none" xmlns="http://www.w3.org/2000/svg">
<path d="M82 50.3958V58.0833C82 61.8587 78.9421 64.9167 75.1667 64.9167H63.0546C63.1571 64.37 63.2083 63.7892 63.2083 63.2083V52.9583C63.2083 47.7992 61.4146 42.9475 58.3396 39.1208C59.7575 37.9592 61.3804 37.0708 63.1571 36.5242C60.1504 34.9696 58.0833 31.8262 58.0833 28.1875C58.0833 22.9942 62.2858 18.7917 67.4792 18.7917C72.6725 18.7917 76.875 22.9942 76.875 28.1875C76.875 31.8262 74.8079 34.9696 71.8012 36.5242C77.7121 38.3692 82 43.8871 82 50.3958Z" fill="white"/>
<path d="M18.7917 52.9583V63.2083C18.7917 63.7892 18.8429 64.37 18.9454 64.9167H6.83333C3.05792 64.9167 0 61.8587 0 58.0833V50.3958C0 43.8871 4.28792 38.3692 10.1987 36.5242C7.19208 34.9696 5.125 31.8262 5.125 28.1875C5.125 22.9942 9.3275 18.7917 14.5208 18.7917C19.7142 18.7917 23.9167 22.9942 23.9167 28.1875C23.9167 31.8262 21.8496 34.9696 18.8429 36.5242C20.6196 37.0708 22.2425 37.9592 23.6604 39.1208C20.5854 42.9475 18.7917 47.7992 18.7917 52.9583Z" fill="white"/>
<path d="M45.8756 34.8278C50.0473 32.9606 52.9583 28.782 52.9583 23.9167C52.9583 17.3123 47.6044 11.9583 41 11.9583C34.3956 11.9583 29.0417 17.3123 29.0417 23.9167C29.0417 28.782 31.9527 32.9606 36.1244 34.8278C28.114 36.9786 22.2083 44.2681 22.2083 52.9583V63.2083C22.2083 66.982 25.268 70.0417 29.0417 70.0417H52.9583C56.732 70.0417 59.7917 66.982 59.7917 63.2083V52.9583C59.7917 44.2698 53.886 36.9786 45.8756 34.8278Z" fill="white"/>
</svg>
