<svg width="531" height="293" viewBox="0 0 531 293" fill="none" xmlns="http://www.w3.org/2000/svg">
<path d="M30.1609 293C20.8276 293 13.6276 290.467 8.56094 285.4C3.49427 280.067 0.960939 273.267 0.960939 265C0.960939 256.467 3.49427 249.533 8.56094 244.2C13.8943 238.6 20.9609 235.8 29.7609 235.8C38.8276 235.8 46.0276 238.467 51.3609 243.8C56.6943 248.867 59.3609 255.667 59.3609 264.2C59.3609 272.467 56.8276 279.4 51.7609 285C46.6943 290.333 39.4943 293 30.1609 293ZM85.9953 118.2V85.8H153.595V111.8C168.529 90.4667 188.929 79.8 214.795 79.8C240.929 79.8 258.529 90.4667 267.595 111.8C282.529 90.4667 302.795 79.8 328.395 79.8C347.595 79.8 362.395 85.6667 372.795 97.4C383.195 108.867 388.395 126.2 388.395 149.4V253.8L411.195 255V287H315.995V256.6L329.195 255.4C333.195 254.867 335.995 253.8 337.595 252.2C339.462 250.333 340.529 247.133 340.795 242.6V159.8C340.795 145.133 339.062 134.333 335.595 127.4C332.395 120.2 324.662 116.6 312.395 116.6C300.129 116.6 290.662 120.333 283.995 127.8C277.595 135.267 274.395 145.267 274.395 157.8V253.8L296.395 255V287H201.995V256.6L215.195 255.4C219.195 254.867 222.129 253.8 223.995 252.2C225.862 250.333 226.795 247 226.795 242.2V159.8C226.795 145.133 225.062 134.333 221.595 127.4C218.395 120.2 210.529 116.6 197.995 116.6C185.729 116.6 176.395 120.467 169.995 128.2C163.595 135.933 160.395 145.533 160.395 157V253.8L181.995 255V287H87.5953V256.6L100.795 255.4C104.795 254.867 107.729 253.8 109.595 252.2C111.462 250.333 112.395 247 112.395 242.2H112.795V131.8C112.795 127.267 111.995 124.2 110.395 122.6C109.062 120.733 106.529 119.667 102.795 119.4L85.9953 118.2ZM507.28 85.8V253.8L530.08 255V287H434.88V256.6L448.08 255.4C455.813 254.6 459.68 250.333 459.68 242.6V131.4C459.68 126.867 458.88 123.8 457.28 122.2C455.946 120.6 453.413 119.8 449.68 119.8L435.68 119V85.8H507.28ZM456.88 51.4C451.28 45.8 448.48 38.7333 448.48 30.2C448.48 21.6667 451.28 14.6 456.88 8.99998C462.48 3.13332 469.813 0.199997 478.88 0.199997C487.946 0.199997 495.28 3.13332 500.88 8.99998C506.746 14.6 509.68 21.6667 509.68 30.2C509.68 38.7333 506.746 45.8 500.88 51.4C495.28 56.7333 487.946 59.4 478.88 59.4C469.813 59.4 462.48 56.7333 456.88 51.4Z" fill="black"/>
</svg>
