<svg width="100" height="125" viewBox="0 0 100 125" fill="none" xmlns="http://www.w3.org/2000/svg">
<path d="M58.519 40.489H41.889C41.321 40.489 40.861 40.949 40.861 41.517V80.906C40.861 81.473 41.321 81.934 41.889 81.934H58.519C59.088 81.934 59.547 81.473 59.547 80.906V41.517C59.547 40.949 59.088 40.489 58.519 40.489ZM57.491 42.545V52.833H55.003C55.003 52.833 55.003 52.834 55.003 52.836C55.004 52.792 55.01 52.749 55.01 52.705C55.01 50.054 52.854 47.898 50.204 47.898C47.554 47.898 45.398 50.054 45.398 52.705C45.398 52.749 45.403 52.792 45.404 52.836C45.404 52.834 45.404 52.833 45.404 52.833H42.916V42.545H57.491ZM50.204 57.51C52.068 57.51 53.683 56.442 54.48 54.886L54.479 54.889H57.491V58.865H42.917V54.889H45.929L45.928 54.886C46.724 56.441 48.34 57.51 50.204 57.51ZM47.454 52.705C47.454 51.187 48.687 49.955 50.204 49.955C51.72 49.955 52.954 51.188 52.954 52.705C52.954 54.221 51.72 55.454 50.204 55.454C48.688 55.454 47.454 54.221 47.454 52.705ZM42.917 79.878V60.92H57.492V79.878H42.917Z" fill="white"/>
<path d="M64.95 80.103H64.888V38.441C64.888 37.413 64.115 36.302 63.368 35.821C62.795 35.452 62.048 35.277 61.388 35.122C61.118 35.058 60.864 34.998 60.673 34.937C58.747 34.316 56.858 31.975 56.858 30.209V26.877C56.857 26.877 56.857 26.877 56.857 26.877C57.075 26.689 57.214 26.414 57.214 26.104V8.218C57.214 7.65 56.754 7.19 56.187 7.19H44.219C43.651 7.19 43.191 7.65 43.191 8.218V26.105C43.191 26.416 43.331 26.69 43.548 26.878V30.209C43.548 31.975 41.658 34.316 39.733 34.937C39.543 34.999 39.288 35.058 39.019 35.122C38.359 35.277 37.611 35.452 37.038 35.821C36.291 36.302 35.519 37.414 35.519 38.441V80.102H35.457C34.889 80.102 34.429 80.562 34.429 81.13V88.296C34.429 88.864 34.889 89.324 35.457 89.324H64.95C65.517 89.324 65.977 88.864 65.977 88.296V81.13C65.978 80.562 65.518 80.103 64.95 80.103ZM45.247 23.568H55.159V25.076H45.247V23.568ZM55.159 21.513H45.247V12.673H55.159V21.513ZM56.382 27.114C56.319 27.126 56.254 27.133 56.188 27.133C56.254 27.133 56.318 27.126 56.382 27.114ZM56.715 26.982C56.713 26.983 56.709 26.985 56.707 26.987C56.709 26.986 56.713 26.984 56.715 26.982ZM56.558 27.061C56.54 27.069 56.521 27.072 56.504 27.078C56.521 27.072 56.54 27.068 56.558 27.061ZM55.159 9.246V10.617H45.247V9.246H55.159ZM43.904 27.078C43.886 27.072 43.866 27.069 43.849 27.062C43.867 27.069 43.886 27.073 43.904 27.078ZM63.921 87.27H36.485V82.16H36.547C37.115 82.16 37.575 81.699 37.575 81.132V38.441C37.575 38.235 37.885 37.722 38.152 37.55C38.426 37.373 39.015 37.235 39.489 37.124C39.801 37.051 40.095 36.981 40.365 36.895C43.157 35.994 45.605 32.871 45.605 30.21V27.133H54.803V30.21C54.803 32.871 57.251 35.994 60.043 36.895C60.314 36.982 60.606 37.051 60.918 37.124C61.392 37.235 61.981 37.374 62.256 37.551C62.524 37.723 62.832 38.236 62.832 38.442V81.131C62.832 81.698 63.293 82.159 63.86 82.159H63.921V87.27Z" fill="white"/>
</svg>
