<svg width="100" height="125" viewBox="0 0 100 125" fill="none" xmlns="http://www.w3.org/2000/svg">
<path d="M30.354 61.758C29.156 63.193 27.828 64.552 26.404 65.8C25.016 67.024 23.842 68.457 22.915 70.062C22.639 70.54 22.802 71.152 23.28 71.428C23.438 71.519 23.61 71.562 23.78 71.562C24.126 71.562 24.462 71.383 24.647 71.062C25.465 69.646 26.502 68.38 27.725 67.302C29.225 65.988 30.626 64.553 31.89 63.039C32.244 62.615 32.187 61.984 31.764 61.631C31.341 61.277 30.708 61.333 30.354 61.758Z" fill="white"/>
<path d="M22.312 73.844C21.781 73.714 21.235 74.044 21.105 74.58C20.79 75.886 20.629 77.228 20.629 78.57C20.629 79.29 20.674 79.963 20.762 80.57C20.834 81.068 21.262 81.426 21.75 81.426C21.798 81.426 21.847 81.423 21.895 81.415C22.442 81.336 22.82 80.828 22.741 80.282C22.666 79.769 22.629 79.193 22.629 78.569C22.629 77.385 22.77 76.201 23.049 75.049C23.178 74.512 22.849 73.972 22.312 73.842V73.844Z" fill="white"/>
<path d="M80.256 10.787C78.25 8.91401 75.638 7.98901 72.898 8.17401L55.614 9.36401C52.637 9.57001 50.261 11.9 49.926 14.802H45.13V12.589C45.13 10.593 44.352 8.70901 42.937 7.28201C41.517 5.86101 39.632 5.07901 37.63 5.07901C33.489 5.07901 30.12 8.44801 30.12 12.589V14.802H26.519C24.786 14.802 23.375 16.212 23.375 17.947C23.375 19.682 24.786 21.091 26.519 21.091H30.12V23.3C30.12 26.162 31.783 28.766 34.3 30.011V40.42C34.3 48.772 30.459 56.928 23.758 62.8C19.228 66.796 16.63 72.544 16.63 78.571C16.63 83.778 18.55 87.262 22.443 89.238C22.752 92.421 25.442 94.917 28.704 94.917H46.552C49.815 94.917 52.505 92.419 52.813 89.235C56.703 87.258 58.62 83.775 58.62 78.571C58.62 72.54 56.025 66.792 51.498 62.798C44.801 56.938 40.959 48.781 40.959 40.421V30.001C43.473 28.75 45.129 26.153 45.129 23.301V21.092H49.925C50.261 23.995 52.636 26.324 55.613 26.53L72.897 27.72C73.13 27.736 73.361 27.743 73.592 27.743C76.075 27.743 78.419 26.82 80.255 25.106C82.261 23.233 83.366 20.691 83.366 17.947C83.366 15.203 82.262 12.66 80.256 10.787ZM50.178 64.3C54.272 67.911 56.62 73.112 56.62 78.571C56.62 83.222 54.972 86.126 51.431 87.708C47.818 89.325 42.412 89.461 37.63 89.461C32.848 89.461 27.432 89.325 23.818 87.708C20.278 86.126 18.63 83.223 18.63 78.571C18.63 73.119 20.982 67.918 25.079 64.302C32.21 58.052 36.3 49.348 36.3 40.42V30.692C36.734 30.769 37.178 30.81 37.63 30.81C38.085 30.81 38.529 30.768 38.96 30.691V40.421C38.96 49.358 43.05 58.062 50.178 64.3ZM43.13 23.3C43.13 25.604 41.746 27.619 39.586 28.443C38.382 28.929 36.907 28.932 35.655 28.446C33.541 27.643 32.12 25.576 32.12 23.3V20.101L32.122 20.091V15.803L32.12 15.793V12.59C32.12 9.55201 34.592 7.08001 37.63 7.08001C39.098 7.08001 40.481 7.65401 41.52 8.69401C42.558 9.74101 43.13 11.125 43.13 12.59V23.3ZM78.892 23.645C77.295 25.135 75.211 25.871 73.037 25.724L55.753 24.534C53.583 24.385 51.882 22.563 51.882 20.388V15.508C51.882 13.332 53.582 11.511 55.753 11.362L73.037 10.172C75.217 10.024 77.295 10.76 78.892 12.251C80.489 13.741 81.368 15.765 81.368 17.949C81.368 20.133 80.489 22.155 78.892 23.645Z" fill="white"/>
<path d="M64.686 21.14L61.294 20.906C60.739 20.884 60.266 21.284 60.228 21.835C60.19 22.387 60.605 22.864 61.157 22.902L64.549 23.136C64.572 23.136 64.596 23.138 64.619 23.138C65.14 23.138 65.579 22.735 65.616 22.207C65.654 21.655 65.238 21.178 64.686 21.14Z" fill="white"/>
<path d="M76.251 20.635C75.468 21.413 74.411 21.813 73.311 21.734L67.528 21.336C66.977 21.313 66.5 21.714 66.462 22.266C66.424 22.817 66.84 23.294 67.391 23.332L73.175 23.73C73.312 23.739 73.448 23.744 73.583 23.744C75.119 23.744 76.568 23.143 77.664 22.054C78.056 21.664 78.057 21.031 77.667 20.639C77.278 20.249 76.646 20.246 76.253 20.636L76.251 20.635Z" fill="white"/>
</svg>
