<?xml version="1.0" encoding="iso-8859-1"?>
<!-- Uploaded to: SVG Repo, www.svgrepo.com, Generator: SVG Repo Mixer Tools -->
<svg fill="#000000" height="800px" width="800px" version="1.1" id="Capa_1" xmlns="http://www.w3.org/2000/svg" xmlns:xlink="http://www.w3.org/1999/xlink" 
	 viewBox="0 0 470 470" xml:space="preserve">
<g>
	<path d="M357.803,72.196l-19.711-19.711C339.275,51.159,340,49.416,340,47.5c0-4.143-3.358-7.5-7.5-7.5H195.607l27.196-27.196
		c2.929-2.93,2.929-7.678,0-10.607c-2.929-2.928-7.678-2.928-10.606,0L174.393,40H137.5c-4.142,0-7.5,3.357-7.5,7.5
		c0,1.917,0.725,3.66,1.908,4.985l-19.711,19.711C110.79,73.603,110,75.51,110,77.5v355c0,1.989,0.79,3.896,2.197,5.304
		l19.711,19.711c-1.183,1.326-1.908,3.069-1.908,4.985c0,4.143,3.358,7.5,7.5,7.5h195c4.142,0,7.5-3.357,7.5-7.5
		c0-1.917-0.725-3.66-1.908-4.985l19.711-19.711c1.407-1.407,2.197-3.314,2.197-5.304v-355C360,75.51,359.21,73.603,357.803,72.196z
		 M150.607,55h168.786L345,80.606v25.522c-26.071,70.474-84.351,125.647-156.161,147.718c-3.959,1.217-6.183,5.413-4.966,9.372
		c0.991,3.226,3.959,5.299,7.167,5.299c0.729,0,1.472-0.107,2.206-0.333C258.492,248.13,313.215,202.338,345,142.659v93.973
		c-34.194,92.429-121.829,155.186-220,158.24V279.391c12.53-0.363,25.057-1.62,37.339-3.777c4.08-0.716,6.806-4.604,6.089-8.684
		c-0.716-4.081-4.604-6.807-8.684-6.09c-11.428,2.007-23.084,3.185-34.745,3.543V80.606L150.607,55z M319.393,455H150.607
		L125,429.393v-19.512c51.184-1.457,100.057-17.811,141.775-47.541c32.965-23.492,59.563-53.878,78.225-89.068v156.12L319.393,455z"
		/>
</g>
</svg>