<svg width="106" height="15" viewBox="0 0 106 15" fill="none" xmlns="http://www.w3.org/2000/svg">
<path d="M2 12.9999C12.1284 8.96148 22.9746 6.61814 33.685 5.1191C44.2146 3.64537 54.841 2.97076 65.4496 2.51996C75.659 2.08612 86.081 1.60728 96.2847 2.51996C98.5644 2.72386 101.226 3.00332 103.389 3.93767C103.671 4.0595 104.415 4.5791 103.695 4.72993C96.9872 6.13402 89.8242 6.11358 83.0318 6.66191C72.5061 7.51161 61.7708 8.3747 51.4265 10.6927C50.1331 10.9825 48.6791 11.2995 47.4824 11.9436C46.7412 12.3426 49.1322 12.2494 49.9657 12.2494C58.2354 12.2494 66.5026 11.9795 74.7719 11.9992C76.2557 12.0027 78.8194 11.9436 80.3227 12.3884" stroke="white" stroke-width="3" stroke-linecap="round"/>
</svg>
